<?xml version="1.0" encoding="utf-8"?>
<!DOCTYPE svg PUBLIC "-//W3C//DTD SVG 1.1//EN" "http://www.w3.org/Graphics/SVG/1.1/DTD/svg11.dtd">
<svg version="1.1" id="Ebene_3" xmlns="http://www.w3.org/2000/svg" xmlns:xlink="http://www.w3.org/1999/xlink" x="0px" y="0px"
	 width="916px" height="916px" viewBox="0 0 916 916" enable-background="new 0 0 916 916" xml:space="preserve">
<g>
	<path fill="#ffffff" d="M366.162,500.821c0,6.66-5.519,12.179-12.179,12.179h-54.804c-6.66,0-12.179-5.519-12.179-12.179V379.034
		c0-6.66,5.519-12.179,12.179-12.179h54.804c6.66,0,12.179,5.519,12.179,12.179V500.821z M323.536,464.285
		c-6.851,0-12.179,5.519-12.179,12.179c0,6.851,5.328,12.179,12.179,12.179c6.66,0,12.179-5.328,12.179-12.179
		C335.715,469.804,330.196,464.285,323.536,464.285z M581.002,407.388c2.093,6.089,2.854,11.798,2.854,14.462
		c0.38,9.515-2.475,18.458-8.183,26.07c2.093,7.041,2.093,14.652,0,22.264c-1.903,7.041-5.519,13.321-10.276,17.889
		c1.142,14.271-2.093,25.879-9.324,34.442c-8.183,9.705-20.741,14.652-37.487,14.843c-0.762,0-3.426,0-6.851,0h-14.462h-3.235
		c-27.212,0-52.901-8.943-73.453-15.984c-11.989-4.187-23.406-8.183-30.066-8.373c-6.47-0.19-12.179-5.519-12.179-12.179V378.844
		c0-6.279,5.328-11.608,11.608-12.179c7.041-0.571,25.309-23.215,33.682-34.252c6.851-8.753,13.32-16.936,19.22-22.835
		c7.421-7.421,9.515-18.839,11.798-29.876c2.093-11.228,4.377-23.025,12.56-31.018c2.283-2.284,5.328-3.616,8.562-3.616
		c42.626,0,42.626,34.062,42.626,48.715c0,15.604-5.519,26.641-10.656,36.536c-2.093,4.187-3.996,6.089-5.519,12.179h52.711
		c19.79,0,36.536,16.746,36.536,36.536C591.468,389.12,587.472,399.966,581.002,407.388z"/>
</g>
<g>
	<path fill="#ffffff" d="M457.494,727c-24.855,0-49.71-1.521-73.551-4.059c-66.449,58.842-145.58,100.436-233.334,122.755
		c-18.261,5.072-38.044,8.623-57.826,11.159c-1.015,0-2.029,0-2.536,0c-10.146,0-19.275-8.116-21.812-19.275
		c0-0.507,0-0.507,0-0.507c-2.536-12.682,6.087-20.29,13.696-29.421c31.956-36.015,68.479-66.449,92.319-151.16
		C69.957,597.145,3,505.332,3,402.361C3,222.795,206.406,77.723,457.494,77.723s454.494,145.073,454.494,324.639
		C911.988,581.928,708.582,727,457.494,727z M67.928,402.361c0,75.58,50.725,147.609,138.479,197.319l44.131,25.362l-13.696,48.695
		c-9.638,36.016-22.318,63.914-35.507,87.247c51.232-21.304,97.898-50.218,139.493-86.739l21.812-19.275l28.913,3.043
		c21.812,2.537,44.131,4.059,65.942,4.059c211.016,0,389.566-118.695,389.566-259.711c0-141.015-178.551-259.711-389.566-259.711
		S67.928,261.346,67.928,402.361z"/>
</g>
</svg>
