<?xml version="1.0" standalone="no"?>
<!DOCTYPE svg PUBLIC "-//W3C//DTD SVG 1.1//EN" "http://www.w3.org/Graphics/SVG/1.1/DTD/svg11.dtd" >
<svg>
<metadata>
Created by FontForge 20090622 at Fri Apr 26 22:52:52 2019
 By deploy user
Copyright (c) 2011 by Tarek Atrissi Design. All rights reserved.
</metadata>
<defs>
<font id="Al-Jazeera-Arabic-Bold" horiz-adv-x="446" >
  <font-face 
    font-family="Al-Jazeera-Arabic-Bold"
    font-weight="700"
    font-stretch="normal"
    units-per-em="1000"
    panose-1="1 0 5 0 0 0 0 2 0 6"
    ascent="800"
    descent="-200"
    bbox="-126 -489 1894 1090"
    underline-thickness="29"
    underline-position="-451"
    unicode-range="U+0020-U+FEFC"
  />
<missing-glyph horiz-adv-x="500" 
d="M62 0v562h375v-562h-375zM125 62h250v438h-250v-438z" />
    <glyph glyph-name="shaddehdamatan" unicode="&#x64c;&#x651;" horiz-adv-x="299" arabic-form="isolated" 
d="M65 796q0 -8 -0.5 -20t1.5 -22.5t7.5 -18t16.5 -7.5q14 0 21.5 12t7.5 29v36l46 12v-34q0 -15 5.5 -24.5t17.5 -9.5q14 0 21.5 11t7.5 28v38l46 12v-43q0 -50 -21 -73t-49 -23q-13 0 -28 4.5t-23 12.5q-11 -17 -24 -26.5t-31 -9.5q-17 0 -28.5 6.5t-18.5 17t-10 23
t-3 25.5v33zM208 992q-5 23 -12.5 38.5t-16.5 15.5q-8 -2 -12.5 -8t-6.5 -14q-3 -9 -4 -19q0 -11 6.5 -15.5t16.5 -4.5q7 0 14 2t15 5zM44 898q10 14 29 23t34 9q11 0 24.5 -8t21.5 -24q17 8 31 21t21 30l-18 -2.5t-22 -1.5q-20 0 -34 8.5t-14 35.5q0 21 6.5 39t17 32
t23.5 22t26 8q12 0 22.5 -8.5t18 -22.5t11.5 -31.5t4 -35.5q0 -34 -8 -57.5t-23 -40.5t-35.5 -29t-45.5 -21q-8 29 -18 38t-22 9q-11 0 -26.5 -10t-24.5 -19z" />
    <glyph glyph-name="shaddehkasratan" unicode="&#x64d;&#x651;" horiz-adv-x="299" arabic-form="isolated" 
d="M65 1012q0 -8 -0.5 -20t1.5 -22.5t7.5 -18t16.5 -7.5q14 0 21.5 12t7.5 29v36l46 12v-34q0 -15 5.5 -24.5t17.5 -9.5q14 0 21.5 11t7.5 28v38l46 12v-43q0 -50 -21 -73t-49 -23q-13 0 -28 4.5t-23 12.5q-11 -17 -24 -26.5t-31 -9.5q-17 0 -28.5 6.5t-18.5 17t-10 23
t-3 25.5v33zM32 831l225 64v-50l-225 -64v50zM32 738l225 64v-50l-225 -64v50z" />
    <glyph glyph-name="shaddehfatha" unicode="&#x64e;&#x651;" horiz-adv-x="299" arabic-form="isolated" 
d="M65 796q0 -8 -0.5 -20t1.5 -22.5t7.5 -18t16.5 -7.5q14 0 21.5 12t7.5 29v36l46 12v-34q0 -15 5.5 -24.5t17.5 -9.5q14 0 21.5 11t7.5 28v38l46 12v-43q0 -50 -21 -73t-49 -23q-13 0 -28 4.5t-23 12.5q-11 -17 -24 -26.5t-31 -9.5q-17 0 -28.5 6.5t-18.5 17t-10 23
t-3 25.5v33zM28 869l225 64v-50l-225 -64v50z" />
    <glyph glyph-name="shaddehdamma" unicode="&#x64f;&#x651;" horiz-adv-x="299" arabic-form="isolated" 
d="M65 796q0 -8 -0.5 -20t1.5 -22.5t7.5 -18t16.5 -7.5q14 0 21.5 12t7.5 29v36l46 12v-34q0 -15 5.5 -24.5t17.5 -9.5q14 0 21.5 11t7.5 28v38l46 12v-43q0 -50 -21 -73t-49 -23q-13 0 -28 4.5t-23 12.5q-11 -17 -24 -26.5t-31 -9.5q-17 0 -28.5 6.5t-18.5 17t-10 23
t-3 25.5v33zM80 873q26 8 51.5 21.5t35.5 39.5q-8 -1 -22 -3t-28 -0.5t-25 8.5t-12 25q-2 22 3.5 41.5t16 34.5t23.5 24.5t26 10.5q10 1 20.5 -5.5t18.5 -18t13.5 -26.5t6.5 -31q3 -43 -7 -71t-28 -46t-42 -29.5t-51 -21.5v47zM170 977q-5 22 -12.5 38.5t-16.5 15.5
q-11 -2 -16.5 -16t-6.5 -21q-2 -20 15 -22.5t37 5.5z" />
    <glyph glyph-name="shaddehkasra" unicode="&#x650;&#x651;" horiz-adv-x="289" arabic-form="isolated" 
d="M38 738l225 64v-50l-225 -64v50zM65 913q0 -8 -0.5 -20t1.5 -22.5t7.5 -18t16.5 -7.5q14 0 21.5 12t7.5 29v36l46 12v-34q0 -15 5.5 -24.5t17.5 -9.5q14 0 21.5 11t7.5 28v38l46 12v-43q0 -50 -21 -73t-49 -23q-13 0 -28 4.5t-23 12.5q-11 -17 -24 -26.5t-31 -9.5
q-17 0 -28.5 6.5t-18.5 17t-10 23t-3 25.5v33z" />
    <glyph glyph-name="aleffathatanfina" unicode="&#xfe8e;&#x64b;" horiz-adv-x="298" arabic-form="final" 
d="M74 642l127 36v-569h112v-109h-239v642zM17 738l225 64v-50l-225 -64v50zM17 831l225 64v-50l-225 -64v50z" />
    <glyph glyph-name="aleffathataniso" unicode="&#x627;&#x64b;" horiz-adv-x="258" arabic-form="isolated" 
d="M188 678v-678h-127v642zM17 738l225 64v-50l-225 -64v50zM17 831l225 64v-50l-225 -64v50z" />
    <glyph glyph-name="lamalefmaddaaboveiso" unicode="&#xfedf;&#xfe82;" horiz-adv-x="532" arabic-form="isolated" 
d="M68 669q25 -23 59.5 -49.5l71 -57t73 -65t66.5 -73.5q7 8 7 59v159l123 40v-202q0 -80 -60 -149q83 -128 83 -228v-103h-454v135q37 24 71.5 50.5t64.5 52t54.5 49l41.5 40.5q-28 39 -62 72t-69 61t-68.5 52t-59.5 45zM390 109q-3 12 -8.5 28.5t-13.5 35t-18 38t-22 36.5
l-40 -38.5t-39.5 -34t-44 -32l-52.5 -33.5h238zM-28 790q13 -7 33.5 -10.5t46.5 -4t56 2t62 7.5l36 6.5l36 6.5q88 16 146 -3.5t90 -68.5q-25 14 -77 16t-115 -9q-20 -4 -41 -9t-41 -8q-83 -14 -142.5 6t-89.5 68z" />
    <glyph glyph-name="lamalefmaddaabovefina" unicode="&#xfee0;&#xfe82;" horiz-adv-x="710" arabic-form="final" 
d="M102 508q8 5 25.5 12t35.5 15q21 9 45 18q30 -39 58.5 -99.5t52 -125t41.5 -123.5t28 -95q22 3 35.5 13t21 23.5t10 29.5t2.5 32v432l128 38v-476v-33q0 -32 16.5 -46t43.5 -14h80v-109h-45q-48 0 -82 18t-51 48q-23 -29 -64.5 -47.5t-111.5 -18.5h-351l35 109h209
q-8 35 -21 81.5t-32.5 99t-46.5 108.5t-62 110zM-75 665q13 -7 33.5 -10.5t46.5 -4t56 2t62 7.5l36 6.5l36 6.5q88 16 146 -3.5t90 -68.5q-25 14 -77 16t-115 -9q-20 -4 -41 -9t-41 -8q-83 -14 -142.5 6t-89.5 68z" />
    <glyph glyph-name="lamalefhamzaaboveiso" unicode="&#xfedf;&#xfe84;" horiz-adv-x="532" arabic-form="isolated" 
d="M68 669q25 -23 59.5 -49.5l71 -57t73 -65t66.5 -73.5q7 8 7 59v159l123 40v-202q0 -80 -60 -149q83 -128 83 -228v-103h-454v135q37 24 71.5 50.5t64.5 52t54.5 49l41.5 40.5q-28 39 -62 72t-69 61t-68.5 52t-59.5 45zM390 109q-3 12 -8.5 28.5t-13.5 35t-18 38t-22 36.5
l-40 -38.5t-39.5 -34t-44 -32l-52.5 -33.5h238zM368 752l-240 -71v63l66 20q-11 2 -19.5 9.5t-14.5 18t-9.5 22.5t-3.5 21q0 31 14 55.5t35.5 42t46.5 26.5t47 9q23 0 44 -7.5t41 -33.5l-24.5 -20l-34.5 -29q-18 19 -45 19q-26 0 -37 -14t-11 -28q0 -13 7.5 -24t18.5 -18.5
t23 -12t21 -5.5l75 22v-65z" />
    <glyph glyph-name="lamalefhamzaabovefina" unicode="&#xfee0;&#xfe84;" horiz-adv-x="710" arabic-form="final" 
d="M102 508q8 5 25.5 12t35.5 15q21 9 45 18q30 -39 58.5 -99.5t52 -125t41.5 -123.5t28 -95q22 3 35.5 13t21 23.5t10 29.5t2.5 32v432l128 38v-476v-33q0 -32 16.5 -46t43.5 -14h80v-109h-45q-48 0 -82 18t-51 48q-23 -29 -64.5 -47.5t-111.5 -18.5h-351l35 109h209
q-8 35 -21 81.5t-32.5 99t-46.5 108.5t-62 110zM324 658l-240 -71v63l66 20q-11 2 -19.5 9.5t-14.5 18t-9.5 22.5t-3.5 21q0 31 14 55.5t35.5 42t46.5 26.5t47 9q23 0 44 -7.5t41 -33.5l-24.5 -20l-34.5 -29q-18 19 -45 19q-26 0 -37 -14t-11 -28q0 -13 7.5 -24t18.5 -18.5
t23 -12t21 -5.5l75 22v-65z" />
    <glyph glyph-name="lamalefhamzabelowiso" unicode="&#xfedf;&#xfe88;" horiz-adv-x="532" arabic-form="isolated" 
d="M68 669q25 -23 59.5 -49.5l71 -57t73 -65t66.5 -73.5q7 8 7 59v159l123 40v-202q0 -80 -60 -149q83 -128 83 -228v-103h-454v135q37 24 71.5 50.5t64.5 52t54.5 49l41.5 40.5q-28 39 -62 72t-69 61t-68.5 52t-59.5 45zM390 109q-3 12 -8.5 28.5t-13.5 35t-18 38t-22 36.5
l-40 -38.5t-39.5 -34t-44 -32l-52.5 -33.5h238zM370 -288l-240 -71v63l66 20q-11 2 -19.5 9.5t-14.5 18t-9.5 22.5t-3.5 21q0 31 14 55.5t35.5 42t46.5 26.5t47 9q23 0 44 -7.5t41 -33.5l-24.5 -20l-34.5 -29q-18 19 -45 19q-26 0 -37 -14t-11 -28q0 -13 7.5 -24t18.5 -18.5
t23 -12t21 -5.5l75 22v-65z" />
    <glyph glyph-name="lamalefhamzabelowfina" unicode="&#xfee0;&#xfe88;" horiz-adv-x="710" arabic-form="final" 
d="M102 508q8 5 25.5 12t35.5 15q21 9 45 18q30 -39 58.5 -99.5t52 -125t41.5 -123.5t28 -95q22 3 35.5 13t21 23.5t10 29.5t2.5 32v432l128 38v-476v-33q0 -32 16.5 -46t43.5 -14h80v-109h-45q-48 0 -82 18t-51 48q-23 -29 -64.5 -47.5t-111.5 -18.5h-351l35 109h209
q-8 35 -21 81.5t-32.5 99t-46.5 108.5t-62 110zM370 -288l-240 -71v63l66 20q-11 2 -19.5 9.5t-14.5 18t-9.5 22.5t-3.5 21q0 31 14 55.5t35.5 42t46.5 26.5t47 9q23 0 44 -7.5t41 -33.5l-24.5 -20l-34.5 -29q-18 19 -45 19q-26 0 -37 -14t-11 -28q0 -13 7.5 -24t18.5 -18.5
t23 -12t21 -5.5l75 22v-65z" />
    <glyph glyph-name="lamalefiso" unicode="&#xfedf;&#xfe8e;" horiz-adv-x="532" arabic-form="isolated" 
d="M68 669q25 -23 59.5 -49.5l71 -57t73 -65t66.5 -73.5q7 8 7 59v159l123 40v-202q0 -80 -60 -149q83 -128 83 -228v-103h-454v135q37 24 71.5 50.5t64.5 52t54.5 49l41.5 40.5q-28 39 -62 72t-69 61t-68.5 52t-59.5 45zM390 109q-3 12 -8.5 28.5t-13.5 35t-18 38t-22 36.5
l-40 -38.5t-39.5 -34t-44 -32l-52.5 -33.5h238z" />
    <glyph glyph-name="lamaleffina" unicode="&#xfee0;&#xfe8e;" horiz-adv-x="710" arabic-form="final" 
d="M102 508q8 5 25.5 12t35.5 15q21 9 45 18q30 -39 58.5 -99.5t52 -125t41.5 -123.5t28 -95q22 3 35.5 13t21 23.5t10 29.5t2.5 32v432l128 38v-476v-33q0 -32 16.5 -46t43.5 -14h80v-109h-45q-48 0 -82 18t-51 48q-23 -29 -64.5 -47.5t-111.5 -18.5h-351l35 109h209
q-8 35 -21 81.5t-32.5 99t-46.5 108.5t-62 110z" />
    <glyph glyph-name="lilah" unicode="&#xfedf;&#xfee0;&#x651;&#x670;&#xfeea;" horiz-adv-x="1304" arabic-form="isolated" 
d="M74 182q0 42 24.5 82t76.5 72t133.5 55t194.5 31v-313h246v533l127 36v-569h245v533l127 36v-678h-825q-11 7 -18.5 17t-12 20t-6.5 17.5t-2 9.5q0 -2 -4.5 -12t-17.5 -21.5t-37.5 -21t-64.5 -9.5q-102 0 -144 48.5t-42 133.5zM195 200v-32q0 -29 17 -44t55 -15h115v199
q-42 -8 -76.5 -20t-58.5 -26t-37.5 -30t-14.5 -32z" />
    <glyph glyph-name="shaddahfathatan" unicode="&#x64b;&#x651;" horiz-adv-x="299" 
d="M65 796q0 -8 -0.5 -20t1.5 -22.5t7.5 -18t16.5 -7.5q14 0 21.5 12t7.5 29v36l46 12v-34q0 -15 5.5 -24.5t17.5 -9.5q14 0 21.5 11t7.5 28v38l46 12v-43q0 -50 -21 -73t-49 -23q-13 0 -28 4.5t-23 12.5q-11 -17 -24 -26.5t-31 -9.5q-17 0 -28.5 6.5t-18.5 17t-10 23
t-3 25.5v33zM27 967l225 64v-50l-225 -64v50zM27 874l225 64v-50l-225 -64v50z" />
    <glyph glyph-name="lammeeminitial" unicode="&#xfedf;&#xfee4;" horiz-adv-x="858" arabic-form="initial" 
d="M477 109h198v533l127 36v-678h-358q-34 -61 -65 -61q-13 0 -28 7q-30 12 -81.5 37l-124.5 62q-17 -30 -39 -39q-17 -6 -56 -6h-65v109h74q30 69 63 125.5t65.5 96t63 61.5t56.5 22q66 0 110 -94q13 -28 26 -70.5t28 -102.5q4 -22 6 -38zM366 70q-12 90 -31.5 145.5
t-48.5 55.5q-10 0 -35 -23q-15 -15 -31.5 -41.5t-27.5 -47.5q42 -32 87 -54.5t87 -34.5z" />
    <glyph glyph-name="faya" unicode="&#xfed3;&#xfef2;" horiz-adv-x="1525" 
d="M1473 105q0 -105 -76 -105h-573q0 82 -8 138.5t-21 93.5t-29 56.5t-32.5 28.5t-31 10.5t-23.5 1.5q-33 0 -59.5 -10t-45 -26t-29 -36t-10.5 -40q0 -10 4.5 -22t20.5 -12h100q15 0 28 -4.5t22.5 -16.5t15 -32t5.5 -50q0 -135 -81.5 -197.5t-259.5 -62.5q-66 0 -119 19
t-90 49.5t-57 68t-20 74.5q0 56 10.5 96.5t25 69.5t30.5 50.5t27 40.5h77q-26 -43 -45 -99t-19 -108q0 -27 11.5 -53t34 -46.5t55 -33t74.5 -12.5q79 0 121 7t62.5 21t27 36.5t14.5 53.5q1 3 1 8q0 12 -16 12h-51q-39 0 -64.5 5.5t-40.5 17t-21 28t-6 37.5q0 39 16 85.5
t50 86t86 66t124 26.5q67 0 112.5 -32t73.5 -79.5t41 -103t17 -102.5h226q-17 9 -32.5 23.5t-27.5 32.5t-19.5 38t-7.5 40q0 98 56 151.5t166 53.5q51 0 84 -17.5t53 -46t29.5 -65t12.5 -75t2 -75t-1 -64.5zM1362 125q0 55 -2.5 97t-11.5 70.5t-27 42.5t-50 14
q-29 0 -46.5 -9t-26.5 -21.5t-12 -27.5t-3 -27q0 -20 12 -43.5t34.5 -43.5t56 -34.5t76.5 -17.5zM432 -306q0 -31 22.5 -52.5t54.5 -21.5q31 0 52.5 21.5t21.5 52.5q0 32 -21.5 54.5t-52.5 22.5q-32 0 -54.5 -22.5t-22.5 -54.5zM1207 567q0 32 22.5 54.5t54.5 22.5
q31 0 52.5 -22.5t21.5 -54.5q0 -31 -21.5 -52.5t-52.5 -21.5q-32 0 -54.5 21.5t-22.5 52.5zM234 -306q0 -31 22.5 -52.5t54.5 -21.5q31 0 52.5 21.5t21.5 52.5q0 32 -21.5 54.5t-52.5 22.5q-32 0 -54.5 -22.5t-22.5 -54.5z" />
    <glyph glyph-name="ala" unicode="&#xfecb;&#xfee0;&#xfbfd;" horiz-adv-x="1961" 
d="M688 426q67 0 112.5 -32t73.5 -79.5t41 -103t17 -102.5h186v533l127 36v-569h236q-20 26 -26.5 63.5t-6.5 79.5q0 81 65.5 128.5t180.5 50.5q42 2 95 -5t101 -16v-112q-15 4 -37.5 9t-49 9t-55 6.5t-55.5 2.5q-22 0 -41 -3t-33.5 -12t-22.5 -25t-8 -41q0 -54 10.5 -85.5
t27.5 -49.5h268v-109h-1070q0 82 -8 138.5t-21 93.5t-29 56.5t-32.5 28.5t-31 10.5t-23.5 1.5q-33 0 -59.5 -10t-45 -26t-29 -36t-10.5 -40q0 -10 4.5 -22t20.5 -12h100q15 0 28 -4.5t22.5 -16.5t15 -32t5.5 -50q0 -135 -81.5 -197.5t-259.5 -62.5q-66 0 -119 19t-90 49.5
t-57 68t-20 74.5q0 56 10.5 96.5t25 69.5t30.5 50.5t27 40.5h77q-26 -43 -45 -99t-19 -108q0 -27 11.5 -53t34 -46.5t55 -33t74.5 -12.5q79 0 121 7t62.5 21t27 36.5t14.5 53.5q1 3 1 8q0 12 -16 12h-51q-39 0 -64.5 5.5t-40.5 17t-21 28t-6 37.5q0 39 16 85.5t50 86t86 66
t124 26.5z" />
    <glyph glyph-name="hamza" unicode="&#x621;" horiz-adv-x="447" arabic-form="isolated" 
d="M39 -18q20 20 46.5 38l53.5 35q-16 3 -29.5 14.5t-23 27.5t-15 32.5t-5.5 30.5q0 33 17 64.5t44.5 56.5t62.5 41t70.5 18.5t68.5 -11.5t56 -49l-34 -28l-48 -41q-21 24 -51 27q-21 2 -35.5 -2.5t-24 -12.5t-14 -19t-5.5 -21q-2 -20 7.5 -34.5t23.5 -24.5t30.5 -14
t29.5 -1l82.5 18.5t74.5 13.5q-14 -28 -25 -60.5t-19 -62.5q-42 0 -87 -9t-89.5 -25t-86 -36.5t-74.5 -43.5z" />
    <glyph glyph-name="alefmaddaaboveiso" unicode="&#x622;" horiz-adv-x="258" arabic-form="isolated" 
d="M188 678v-678h-127v642zM-114 790q13 -7 33.5 -10.5t46.5 -4t56 2t62 7.5l36 6.5l36 6.5q88 16 146 -3.5t90 -68.5q-25 14 -77 16t-115 -9q-20 -4 -41 -9t-41 -8q-83 -14 -142.5 6t-89.5 68z" />
    <glyph glyph-name="alefhamzaaboveiso" unicode="&#x623;" horiz-adv-x="258" arabic-form="isolated" 
d="M188 678v-678h-127v642zM241 752l-240 -71v63l66 20q-11 2 -19.5 9.5t-14.5 18t-9.5 22.5t-3.5 21q0 31 14 55.5t35.5 42t46.5 26.5t47 9q23 0 44 -7.5t41 -33.5l-24.5 -20l-34.5 -29q-18 19 -45 19q-26 0 -37 -14t-11 -28q0 -13 7.5 -24t18.5 -18.5t23 -12t21 -5.5
l75 22v-65z" />
    <glyph glyph-name="wawhamzaiso" unicode="&#x624;" horiz-adv-x="495" arabic-form="isolated" 
d="M338 109q-1 48 -3.5 97t-10.5 98q-77 -17 -124 -49t-49 -87q0 -29 17 -44t55 -15h115zM459 29q0 -7 -1 -29t-8 -50.5t-23.5 -60t-47.5 -58t-79.5 -43.5t-120.5 -17l-23 72q46 3 84 21q16 7 32 18.5t29.5 28t23.5 38.5t13 51h-122q-51 0 -85.5 10t-56 30.5t-30.5 52
t-9 73.5q0 41 22.5 82t70 76t122 60.5t178.5 35.5q17 -106 24 -201.5t7 -189.5zM375 505l-240 -71v63l66 20q-11 2 -19.5 9.5t-14.5 18t-9.5 22.5t-3.5 21q0 31 14 55.5t35.5 42t46.5 26.5t47 9q23 0 44 -7.5t41 -33.5l-24.5 -20l-34.5 -29q-18 19 -45 19q-26 0 -37 -14
t-11 -28q0 -13 7.5 -24t18.5 -18.5t23 -12t21 -5.5l75 22v-65z" />
    <glyph glyph-name="alefhamzabelowiso" unicode="&#x625;" horiz-adv-x="258" arabic-form="isolated" 
d="M188 678v-678h-127v642zM231 -288l-240 -71v63l66 20q-11 2 -19.5 9.5t-14.5 18t-9.5 22.5t-3.5 21q0 31 14 55.5t35.5 42t46.5 26.5t47 9q23 0 44 -7.5t41 -33.5l-24.5 -20l-34.5 -29q-18 19 -45 19q-26 0 -37 -14t-11 -28q0 -13 7.5 -24t18.5 -18.5t23 -12t21 -5.5
l75 22v-65z" />
    <glyph glyph-name="hamzakirsehiso" unicode="&#x626;" horiz-adv-x="737" arabic-form="isolated" 
d="M551 54q2 9 -0.5 14.5t-14.5 5.5h-58q-28 0 -49 1.5t-35 8.5q-34 16 -43 48.5t1 72t37 80.5t64.5 75t82.5 56t93 22q28 0 41 -11t15.5 -27.5t-3 -35.5t-15.5 -36q-4 -8 -13.5 -9.5t-17.5 3.5q-21 13 -48 7t-52.5 -23t-43.5 -40.5t-21 -43.5q-1 -10 3 -23.5t22 -15.5h105
q15 0 28 -4.5t22.5 -16.5t15 -32t5.5 -50q0 -135 -81.5 -197.5t-259.5 -62.5q-66 0 -119 19t-90 49.5t-57 68t-20 74.5q0 56 10.5 96.5t25 69.5t30.5 50.5t27 40.5h77q-26 -43 -45 -99t-19 -108q0 -27 11.5 -53t34 -46.5t55 -33t74.5 -12.5q79 0 121 7t62.5 21t27 36.5
t14.5 53.5zM316 391l-240 -71v63l66 20q-11 2 -19.5 9.5t-14.5 18t-9.5 22.5t-3.5 21q0 31 14 55.5t35.5 42t46.5 26.5t47 9q23 0 44 -7.5t41 -33.5l-24.5 -20l-34.5 -29q-18 19 -45 19q-26 0 -37 -14t-11 -28q0 -13 7.5 -24t18.5 -18.5t23 -12t21 -5.5l75 22v-65z" />
    <glyph glyph-name="alefiso" unicode="&#x627;" horiz-adv-x="258" arabic-form="isolated" 
d="M188 678v-678h-127v642z" />
    <glyph glyph-name="behiso" unicode="&#x628;" horiz-adv-x="865" arabic-form="isolated" 
d="M243 0q-42 0 -78 7t-63 23t-42 42t-15 63q0 56 10.5 96.5t25 69.5t30.5 50.5t27 40.5h97q-18 -29 -34 -61t-26.5 -63.5t-13 -60t7 -50.5t33 -35t65.5 -13h428v290l120 38v-437h-572zM408 -162q0 32 22.5 54.5t54.5 22.5q31 0 52.5 -22.5t21.5 -54.5q0 -31 -21.5 -52.5
t-52.5 -21.5q-32 0 -54.5 21.5t-22.5 52.5z" />
    <glyph glyph-name="taiso" unicode="&#x62a;" horiz-adv-x="865" arabic-form="isolated" 
d="M243 0q-42 0 -78 7t-63 23t-42 42t-15 63q0 56 10.5 96.5t25 69.5t30.5 50.5t27 40.5h97q-18 -29 -34 -61t-26.5 -63.5t-13 -60t7 -50.5t33 -35t65.5 -13h428v290l120 38v-437h-572zM296 567q0 32 22.5 54.5t54.5 22.5q31 0 52.5 -22.5t21.5 -54.5q0 -31 -21.5 -52.5
t-52.5 -21.5q-32 0 -54.5 21.5t-22.5 52.5zM494 567q0 32 22.5 54.5t54.5 22.5q31 0 52.5 -22.5t21.5 -54.5q0 -31 -21.5 -52.5t-52.5 -21.5q-32 0 -54.5 21.5t-22.5 52.5z" />
    <glyph glyph-name="thaiso" unicode="&#x62b;" horiz-adv-x="865" arabic-form="isolated" 
d="M243 0q-42 0 -78 7t-63 23t-42 42t-15 63q0 56 10.5 96.5t25 69.5t30.5 50.5t27 40.5h97q-18 -29 -34 -61t-26.5 -63.5t-13 -60t7 -50.5t33 -35t65.5 -13h428v290l120 38v-437h-572zM274 567q0 32 22.5 54.5t54.5 22.5q31 0 52.5 -22.5t21.5 -54.5q0 -31 -21.5 -52.5
t-52.5 -21.5q-32 0 -54.5 21.5t-22.5 52.5zM472 567q0 32 22.5 54.5t54.5 22.5q31 0 52.5 -22.5t21.5 -54.5q0 -31 -21.5 -52.5t-52.5 -21.5q-32 0 -54.5 21.5t-22.5 52.5zM369 757q0 32 22.5 54.5t54.5 22.5q31 0 52.5 -22.5t21.5 -54.5q0 -31 -21.5 -53t-52.5 -22
q-32 0 -54.5 22t-22.5 53z" />
    <glyph glyph-name="jeemiso" unicode="&#x62c;" horiz-adv-x="675" arabic-form="isolated" 
d="M551 -319q-89 -24 -172 -24q-62 0 -122 11.5t-107 38.5t-76 71t-29 109q0 63 24.5 123t71 111.5t113 91.5t149.5 64q-14 4 -30.5 11.5t-36.5 15t-43.5 13t-51.5 5.5q-26 0 -59.5 -16t-59.5 -48l-72 65q16 22 39 43t50 37t56.5 25.5t59.5 9.5q29 0 73 -18.5t104 -38.5
t107.5 -29.5t95.5 -8.5l-2 -134q-63 5 -122 -4.5t-111.5 -30.5t-96.5 -50t-75.5 -63t-49 -70.5t-17.5 -71.5q0 -39 19.5 -67.5t55 -47t85.5 -27.5t111 -9q28 0 58 2t62 6zM373 -22q0 32 22.5 54.5t54.5 22.5q31 0 52.5 -22.5t21.5 -54.5q0 -31 -21.5 -52.5t-52.5 -21.5
q-32 0 -54.5 21.5t-22.5 52.5z" />
    <glyph glyph-name="haaiso" unicode="&#x62d;" horiz-adv-x="675" arabic-form="isolated" 
d="M551 -319q-89 -24 -172 -24q-62 0 -122 11.5t-107 38.5t-76 71t-29 109q0 63 24.5 123t71 111.5t113 91.5t149.5 64q-14 4 -30.5 11.5t-36.5 15t-43.5 13t-51.5 5.5q-26 0 -59.5 -16t-59.5 -48l-72 65q16 22 39 43t50 37t56.5 25.5t59.5 9.5q29 0 73 -18.5t104 -38.5
t107.5 -29.5t95.5 -8.5l-2 -134q-63 5 -122 -4.5t-111.5 -30.5t-96.5 -50t-75.5 -63t-49 -70.5t-17.5 -71.5q0 -39 19.5 -67.5t55 -47t85.5 -27.5t111 -9q28 0 58 2t62 6z" />
    <glyph glyph-name="khaiso" unicode="&#x62e;" horiz-adv-x="675" arabic-form="isolated" 
d="M551 -319q-89 -24 -172 -24q-62 0 -122 11.5t-107 38.5t-76 71t-29 109q0 63 24.5 123t71 111.5t113 91.5t149.5 64q-14 4 -30.5 11.5t-36.5 15t-43.5 13t-51.5 5.5q-26 0 -59.5 -16t-59.5 -48l-72 65q16 22 39 43t50 37t56.5 25.5t59.5 9.5q29 0 73 -18.5t104 -38.5
t107.5 -29.5t95.5 -8.5l-2 -134q-63 5 -122 -4.5t-111.5 -30.5t-96.5 -50t-75.5 -63t-49 -70.5t-17.5 -71.5q0 -39 19.5 -67.5t55 -47t85.5 -27.5t111 -9q28 0 58 2t62 6zM305 567q0 32 22.5 54.5t54.5 22.5q31 0 52.5 -22.5t21.5 -54.5q0 -31 -21.5 -52.5t-52.5 -21.5
q-32 0 -54.5 21.5t-22.5 52.5z" />
    <glyph glyph-name="daliso" unicode="&#x62f;" horiz-adv-x="534" arabic-form="isolated" 
d="M59 124q11 -4 24 -8q11 -3 26 -5t33 -2h226q0 19 -6 50.5t-24 66.5t-53 69.5t-94 60.5l28 110q69 -17 121 -59.5t86 -95t51 -107t17 -95.5v-109h-361q-18 0 -33 2t-26 5q-13 4 -24 8z" />
    <glyph glyph-name="zaliso" unicode="&#x630;" horiz-adv-x="534" arabic-form="isolated" 
d="M59 124q11 -4 24 -8q11 -3 26 -5t33 -2h226q0 19 -6 50.5t-24 66.5t-53 69.5t-94 60.5l28 110q69 -17 121 -59.5t86 -95t51 -107t17 -95.5v-109h-361q-18 0 -33 2t-26 5q-13 4 -24 8zM190 567q0 32 22.5 54.5t54.5 22.5q31 0 52.5 -22.5t21.5 -54.5q0 -31 -21.5 -52.5
t-52.5 -21.5q-32 0 -54.5 21.5t-22.5 52.5z" />
    <glyph glyph-name="raiso" unicode="&#x631;" horiz-adv-x="319" arabic-form="isolated" 
d="M244 437q20 -112 27 -218.5t7 -189.5q0 -7 -1 -29t-8 -50.5t-23.5 -60t-47.5 -58t-79.5 -43.5t-120.5 -17l-23 72q51 4 91 24q17 9 33.5 22t29.5 31.5t21 44t8 58.5q0 91 -4.5 186.5t-29.5 188.5z" />
    <glyph glyph-name="zaiso" unicode="&#x632;" horiz-adv-x="319" arabic-form="isolated" 
d="M244 437q20 -112 27 -218.5t7 -189.5q0 -7 -1 -29t-8 -50.5t-23.5 -60t-47.5 -58t-79.5 -43.5t-120.5 -17l-23 72q51 4 91 24q17 9 33.5 22t29.5 31.5t21 44t8 58.5q0 91 -4.5 186.5t-29.5 188.5zM115 567q0 32 22.5 54.5t54.5 22.5q31 0 52.5 -22.5t21.5 -54.5
q0 -31 -21.5 -52.5t-52.5 -21.5q-32 0 -54.5 21.5t-22.5 52.5z" />
    <glyph glyph-name="seeniso" unicode="&#x633;" horiz-adv-x="1177" arabic-form="isolated" 
d="M498 399l120 42v-332h132v290l120 42v-332h131v290l120 42v-441l-511 1q-21 -121 -95.5 -175.5t-198.5 -54.5q-66 0 -116.5 19t-85 49.5t-52 68t-17.5 74.5q0 56 10.5 96.5t25 69.5t30.5 50.5t27 40.5h77q-26 -43 -45 -99t-19 -108q0 -27 9 -53t28.5 -46.5t50 -33
t72.5 -12.5q68 0 118 28t64 85q5 22 5 43v356z" />
    <glyph glyph-name="sheeniso" unicode="&#x634;" horiz-adv-x="1177" arabic-form="isolated" 
d="M498 399l120 42v-332h132v290l120 42v-332h131v290l120 42v-441l-511 1q-21 -121 -95.5 -175.5t-198.5 -54.5q-66 0 -116.5 19t-85 49.5t-52 68t-17.5 74.5q0 56 10.5 96.5t25 69.5t30.5 50.5t27 40.5h77q-26 -43 -45 -99t-19 -108q0 -27 9 -53t28.5 -46.5t50 -33
t72.5 -12.5q68 0 118 28t64 85q5 22 5 43v356zM636 567q0 32 22.5 54.5t54.5 22.5q31 0 52.5 -22.5t21.5 -54.5q0 -31 -21.5 -52.5t-52.5 -21.5q-32 0 -54.5 21.5t-22.5 52.5zM834 567q0 32 22.5 54.5t54.5 22.5q31 0 52.5 -22.5t21.5 -54.5q0 -31 -21.5 -52.5t-52.5 -21.5
q-32 0 -54.5 21.5t-22.5 52.5zM731 757q0 32 22.5 54.5t54.5 22.5q31 0 52.5 -22.5t21.5 -54.5q0 -31 -21.5 -53t-52.5 -22q-32 0 -54.5 22t-22.5 53z" />
    <glyph glyph-name="sadiso" unicode="&#x635;" horiz-adv-x="1193" arabic-form="isolated" 
d="M995 109v54q0 57 -31 92t-88 35q-117 0 -265 -181h384zM498 354l120 35l1 -147q89 85 165.5 127t154.5 42q60 0 97 -30.5t57.5 -76t27.5 -98t7 -97.5v-109h-518q-21 -121 -95.5 -175t-198.5 -54q-66 0 -116.5 19t-85 49.5t-52 68t-17.5 74.5q0 56 10.5 96.5t25 69.5
t30.5 50.5t27 40.5h77q-26 -43 -45 -99t-19 -108q0 -27 9 -53t28.5 -46.5t50 -33t72.5 -12.5q68 0 118 28t64 85q5 22 5 43v311z" />
    <glyph glyph-name="dadiso" unicode="&#x636;" horiz-adv-x="1193" arabic-form="isolated" 
d="M995 109v54q0 57 -31 92t-88 35q-117 0 -265 -181h384zM498 354l120 35l1 -147q89 85 165.5 127t154.5 42q60 0 97 -30.5t57.5 -76t27.5 -98t7 -97.5v-109h-518q-21 -121 -95.5 -175t-198.5 -54q-66 0 -116.5 19t-85 49.5t-52 68t-17.5 74.5q0 56 10.5 96.5t25 69.5
t30.5 50.5t27 40.5h77q-26 -43 -45 -99t-19 -108q0 -27 9 -53t28.5 -46.5t50 -33t72.5 -12.5q68 0 118 28t64 85q5 22 5 43v311zM746 567q0 32 22.5 54.5t54.5 22.5q31 0 52.5 -22.5t21.5 -54.5q0 -31 -21.5 -52.5t-52.5 -21.5q-32 0 -54.5 21.5t-22.5 52.5z" />
    <glyph glyph-name="tahiso" unicode="&#x637;" horiz-adv-x="841" arabic-form="isolated" 
d="M643 109v54q0 57 -31 92t-88 35q-117 0 -265 -181h384zM139 109v533l127 36l1 -436q89 85 165.5 127t154.5 42q60 0 96.5 -30.5t57 -76t28 -98t7.5 -97.5v-109h-731v109h94z" />
    <glyph glyph-name="zadiso" unicode="&#x638;" horiz-adv-x="841" arabic-form="isolated" 
d="M643 109v54q0 57 -31 92t-88 35q-117 0 -265 -181h384zM139 109v533l127 36l1 -436q89 85 165.5 127t154.5 42q60 0 96.5 -30.5t57 -76t28 -98t7.5 -97.5v-109h-731v109h94zM421 567q0 32 22.5 54.5t54.5 22.5q31 0 52.5 -22.5t21.5 -54.5q0 -31 -21.5 -52.5t-52.5 -21.5
q-32 0 -54.5 21.5t-22.5 52.5z" />
    <glyph glyph-name="ayniso" unicode="&#x639;" horiz-adv-x="558" arabic-form="isolated" 
d="M535 102q-179 -29 -274.5 -80t-95.5 -113q0 -27 9 -51.5t37 -43t78.5 -29t133.5 -10.5q26 0 55 1.5t61 5.5l-1 -103q-91 -22 -174 -22q-50 0 -106 12.5t-103.5 39.5t-78.5 70t-31 104q0 34 12 65.5t33.5 58.5t50 49.5t61.5 38.5q-58 24 -82 64.5t-24 96.5q0 44 15.5 81
t44 63.5t69 41t90.5 14.5q61 0 124 -23l2 -85q-29 9 -68 12.5t-75 -3t-61 -26t-25 -56.5q0 -33 13 -55t31.5 -35.5t38.5 -19.5t35 -6q18 9 43 16.5t52.5 14t55.5 11.5t53 10z" />
    <glyph glyph-name="ghaiso" unicode="&#x63a;" horiz-adv-x="558" arabic-form="isolated" 
d="M535 102q-179 -29 -274.5 -80t-95.5 -113q0 -27 9 -51.5t37 -43t78.5 -29t133.5 -10.5q26 0 55 1.5t61 5.5l-1 -103q-91 -22 -174 -22q-50 0 -106 12.5t-103.5 39.5t-78.5 70t-31 104q0 34 12 65.5t33.5 58.5t50 49.5t61.5 38.5q-58 24 -82 64.5t-24 96.5q0 44 15.5 81
t44 63.5t69 41t90.5 14.5q61 0 124 -23l2 -85q-29 9 -68 12.5t-75 -3t-61 -26t-25 -56.5q0 -33 13 -55t31.5 -35.5t38.5 -19.5t35 -6q18 9 43 16.5t52.5 14t55.5 11.5t53 10zM242 567q0 32 22.5 54.5t54.5 22.5q31 0 52.5 -22.5t21.5 -54.5q0 -31 -21.5 -52.5t-52.5 -21.5
q-32 0 -54.5 21.5t-22.5 52.5z" />
    <glyph glyph-name="faiso" unicode="&#x641;" horiz-adv-x="941" arabic-form="isolated" 
d="M779 125q0 55 -2.5 97t-11.5 70.5t-27 42.5t-50 14q-29 0 -46.5 -9t-26.5 -21.5t-12 -27.5t-3 -27q0 -20 12 -43.5t34.5 -43.5t56 -34.5t76.5 -17.5zM243 0q-42 0 -78 7t-63 23t-42 42t-15 63q0 56 10.5 96.5t25 69.5t30.5 50.5t27 40.5h97q-18 -29 -34 -61t-26.5 -63.5
t-13 -60t7 -50.5t33 -35t65.5 -13h308q-17 9 -32.5 23.5t-27.5 32.5t-19.5 38t-7.5 40q0 98 56 151.5t166 53.5q51 0 84 -17.5t53 -46t29.5 -65t12.5 -75t2 -75t-1 -64.5q0 -105 -76 -105h-571zM639 567q0 32 22.5 54.5t54.5 22.5q31 0 52.5 -22.5t21.5 -54.5
q0 -31 -21.5 -52.5t-52.5 -21.5q-32 0 -54.5 21.5t-22.5 52.5z" />
    <glyph glyph-name="kaafiso" unicode="&#x642;" horiz-adv-x="798" arabic-form="isolated" 
d="M641 109q-1 48 -3.5 97t-10.5 98q-77 -17 -124 -49t-49 -87q0 -29 17 -44t55 -15h115zM459 -126q33 0 63 4.5t54 18t41 38t24 65.5h-122q-51 0 -85.5 10t-56 30.5t-30.5 52t-9 73.5q0 41 22.5 82t70 76t122 60.5t178.5 35.5q17 -106 24 -201.5t7 -189.5q0 -7 -1 -29
t-8 -50.5t-23.5 -60t-47.5 -57.5t-79.5 -43t-120.5 -17h-169q-46 0 -93.5 15.5t-86.5 47t-63.5 79t-24.5 112.5q0 56 10.5 96.5t25 69.5t30.5 50.5t27 40.5h77q-26 -43 -45 -99t-19 -108q0 -31 9.5 -66.5t30 -65.5t52 -50t75.5 -20h141zM370 567q0 32 22.5 54.5t54.5 22.5
q31 0 52.5 -22.5t21.5 -54.5q0 -31 -21.5 -52.5t-52.5 -21.5q-32 0 -54.5 21.5t-22.5 52.5zM568 567q0 32 22.5 54.5t54.5 22.5q31 0 52.5 -22.5t21.5 -54.5q0 -31 -21.5 -52.5t-52.5 -21.5q-32 0 -54.5 21.5t-22.5 52.5z" />
    <glyph glyph-name="kafiso" unicode="&#x643;" horiz-adv-x="858" arabic-form="isolated" 
d="M243 0q-42 0 -78 7t-63 23t-42 42t-15 63q0 56 10.5 96.5t25 69.5t30.5 50.5t27 40.5h97q-18 -29 -34 -61t-26.5 -63.5t-13 -60t7 -50.5t33 -35t65.5 -13h394v533l127 36v-678h-545zM546 350l-240 -71v63l66 20q-11 2 -19.5 9.5t-14.5 18t-9.5 22.5t-3.5 21q0 31 14 55.5
t35.5 42t46.5 26.5t47 9q23 0 44 -7.5t41 -33.5l-24.5 -20l-34.5 -29q-18 19 -45 19q-26 0 -37 -14t-11 -28q0 -13 7.5 -24t18.5 -18.5t23 -12t21 -5.5l75 22v-65z" />
    <glyph glyph-name="lamiso" unicode="&#x644;" horiz-adv-x="688" arabic-form="isolated" 
d="M316 -229q-66 0 -116.5 19t-85 49.5t-52 68t-17.5 74.5q0 56 10.5 96.5t25 69.5t30.5 50.5t27 40.5h77q-26 -43 -45 -99t-19 -108q0 -27 9 -53t28.5 -46.5t50 -33t72.5 -12.5q40 0 73 9.5t57 29t37 49t13 68.5v599l127 36v-581q0 -87 -20 -148.5t-58.5 -101t-95 -58
t-128.5 -18.5z" />
    <glyph glyph-name="meemiso" unicode="&#x645;" horiz-adv-x="635" arabic-form="isolated" 
d="M479 70q-12 90 -31.5 145.5t-48.5 55.5q-10 0 -35 -23q-15 -15 -31.5 -41.5t-27.5 -47.5q61 -25 103.5 -48.5t70.5 -40.5zM222 185q54 111 103.5 170t94.5 59q66 0 110 -94q13 -28 26 -70.5t28 -102.5q9 -41 7 -60q-2 -26 -23 -66q-40 -82 -76 -82q-13 0 -28 7
q-16 7 -38.5 20l-50.5 29l-61.5 33.5t-70.5 33.5q-18 7 -31.5 4t-22.5 -13t-13.5 -24t-4.5 -27v-232h-109v302q0 32 13.5 56.5t36 39.5t51.5 19.5t59 -2.5z" />
    <glyph glyph-name="nouniso" unicode="&#x646;" horiz-adv-x="707" arabic-form="isolated" 
d="M313 -180q-46 0 -93.5 15.5t-86.5 47t-63.5 79t-24.5 112.5q0 56 10.5 96.5t25 69.5t30.5 50.5t27 40.5h77q-26 -43 -45 -99t-19 -108q0 -31 9.5 -65.5t30 -63t52 -47.5t75.5 -19h41q44 0 75.5 19t52 47.5t30 63t9.5 65.5q0 67 -8.5 137.5t-24.5 136.5l120 39
q17 -73 25.5 -149t8.5 -148q0 -81 -26.5 -141t-68.5 -100t-94 -59.5t-104 -19.5h-41zM291 512q0 32 22.5 54.5t54.5 22.5q31 0 52.5 -22.5t21.5 -54.5q0 -31 -21.5 -52.5t-52.5 -21.5q-32 0 -54.5 21.5t-22.5 52.5z" />
    <glyph glyph-name="wawiso" unicode="&#x648;" horiz-adv-x="495" arabic-form="isolated" 
d="M338 109q-1 48 -3.5 97t-10.5 98q-77 -17 -124 -49t-49 -87q0 -29 17 -44t55 -15h115zM459 29q0 -7 -1 -29t-8 -50.5t-23.5 -60t-47.5 -58t-79.5 -43.5t-120.5 -17l-23 72q46 3 84 21q16 7 32 18.5t29.5 28t23.5 38.5t13 51h-122q-51 0 -85.5 10t-56 30.5t-30.5 52
t-9 73.5q0 41 22.5 82t70 76t122 60.5t178.5 35.5q17 -106 24 -201.5t7 -189.5z" />
    <glyph glyph-name="yaiso" unicode="&#x64a;" horiz-adv-x="737" arabic-form="isolated" 
d="M551 54q2 9 -0.5 14.5t-14.5 5.5h-58q-28 0 -49 1.5t-35 8.5q-34 16 -43 48.5t1 72t37 80.5t64.5 75t82.5 56t93 22q28 0 41 -11t15.5 -27.5t-3 -35.5t-15.5 -36q-4 -8 -13.5 -9.5t-17.5 3.5q-21 13 -48 7t-52.5 -23t-43.5 -40.5t-21 -43.5q-1 -10 3 -23.5t22 -15.5h105
q15 0 28 -4.5t22.5 -16.5t15 -32t5.5 -50q0 -135 -81.5 -197.5t-259.5 -62.5q-66 0 -119 19t-90 49.5t-57 68t-20 74.5q0 56 10.5 96.5t25 69.5t30.5 50.5t27 40.5h77q-26 -43 -45 -99t-19 -108q0 -27 11.5 -53t34 -46.5t55 -33t74.5 -12.5q79 0 121 7t62.5 21t27 36.5
t14.5 53.5zM186 -305q0 32 22.5 54.5t54.5 22.5q31 0 52.5 -22.5t21.5 -54.5q0 -31 -21.5 -52.5t-52.5 -21.5q-32 0 -54.5 21.5t-22.5 52.5zM384 -305q0 32 22.5 54.5t54.5 22.5q31 0 52.5 -22.5t21.5 -54.5q0 -31 -21.5 -52.5t-52.5 -21.5q-32 0 -54.5 21.5t-22.5 52.5z
" />
    <glyph glyph-name="alefwaslaiso" unicode="&#x671;" horiz-adv-x="230" arabic-form="isolated" 
 />
    <glyph glyph-name="piso.001" unicode="&#x67e;" horiz-adv-x="659" arabic-form="isolated" 
 />
    <glyph glyph-name="giso" unicode="&#x686;" horiz-adv-x="499" arabic-form="isolated" 
 />
    <glyph glyph-name="jehiso" unicode="&#x698;" horiz-adv-x="268" arabic-form="isolated" 
 />
    <glyph glyph-name="kehehiso" unicode="&#x6a9;" horiz-adv-x="645" arabic-form="isolated" 
 />
    <glyph glyph-name="gafiso" unicode="&#x6af;" horiz-adv-x="645" arabic-form="isolated" 
 />
    <glyph glyph-name="farsiyaiso" unicode="&#x6cc;" horiz-adv-x="764" arabic-form="isolated" 
 />
    <glyph glyph-name="alefwaslafina" unicode="&#x671;" horiz-adv-x="244" arabic-form="final" 
 />
    <glyph glyph-name="pfina" unicode="&#x67e;" horiz-adv-x="714" arabic-form="final" 
 />
    <glyph glyph-name="pini" unicode="&#x67e;" horiz-adv-x="249" arabic-form="initial" 
 />
    <glyph glyph-name="pmedi" unicode="&#x67e;" horiz-adv-x="279" arabic-form="medial" 
 />
    <glyph glyph-name="gfina" unicode="&#x686;" horiz-adv-x="532" arabic-form="final" 
 />
    <glyph glyph-name="gini" unicode="&#x686;" horiz-adv-x="510" arabic-form="initial" 
 />
    <glyph glyph-name="gmedi" unicode="&#x686;" horiz-adv-x="472" arabic-form="medial" 
 />
    <glyph glyph-name="jehfina" unicode="&#x698;" horiz-adv-x="294" arabic-form="final" 
 />
    <glyph glyph-name="kehehfina" unicode="&#x6a9;" horiz-adv-x="698" arabic-form="final" 
 />
    <glyph glyph-name="kafini" unicode="&#x6a9;" horiz-adv-x="533" arabic-form="initial" 
d="M444 0h-459v109h340v30q0 29 -16 62.5t-44.5 65.5t-68.5 61.5t-88 50.5l8 172l387 131l-32 -133l-252 -77q42 -29 80.5 -68t68.5 -80q32 -45 54 -91.5t22 -93.5v-30v-109z" />
    <glyph glyph-name="kafmedi" unicode="&#x6a9;" horiz-adv-x="597" arabic-form="medial" 
d="M597 0h-597v109h334v30q0 29 -16 62.5t-44.5 65.5t-68.5 61.5t-88 50.5l8 172l387 131l-32 -133l-252 -77q42 -29 80.5 -68t68.5 -80q32 -45 54 -91.5t22 -93.5v-30h144v-109z" />
    <glyph glyph-name="gaffina" unicode="&#x6af;" horiz-adv-x="708" arabic-form="final" 
 />
    <glyph glyph-name="gafini" unicode="&#x6af;" horiz-adv-x="431" arabic-form="initial" 
 />
    <glyph glyph-name="gafmedi" unicode="&#x6af;" horiz-adv-x="492" arabic-form="medial" 
 />
    <glyph glyph-name="alefma2sourafina" unicode="&#x6cc;" horiz-adv-x="926" arabic-form="final" 
d="M629 426q67 0 112.5 -32t73.5 -79.5t41 -103t17 -102.5h83v-109h-191q0 82 -8 138.5t-21 93.5t-29 56.5t-32.5 28.5t-30.5 10.5t-24 1.5q-33 0 -59.5 -10t-45 -26t-29 -36t-10.5 -40q0 -10 4.5 -22t20.5 -12h100q15 0 28 -4.5t22.5 -16.5t15 -32t5.5 -50
q0 -135 -81.5 -197.5t-259.5 -62.5q-66 0 -119 19t-90 49.5t-57 68t-20 74.5q0 56 10.5 96.5t25 69.5t30.5 50.5t27 40.5h77q-26 -43 -45 -99t-19 -108q0 -27 11.5 -53t34 -46.5t55 -33t74.5 -12.5q79 0 121 7t62.5 21t27 36.5t14.5 53.5q1 3 1 8q0 12 -16 12h-51
q-39 0 -64.5 5.5t-40.5 17t-21 28t-6 37.5q0 39 16 85.5t50 86t86 66t124 26.5z" />
    <glyph glyph-name="alefmaddaabovefina" unicode="&#x622;" horiz-adv-x="298" arabic-form="final" 
d="M74 642l127 36v-569h112v-109h-239v642zM-108 790q13 -7 33.5 -10.5t46.5 -4t56 2t62 7.5l36 6.5l36 6.5q88 16 146 -3.5t90 -68.5q-25 14 -77 16t-115 -9q-20 -4 -41 -9t-41 -8q-83 -14 -142.5 6t-89.5 68z" />
    <glyph glyph-name="alefhamzaabovefina" unicode="&#x623;" horiz-adv-x="298" arabic-form="final" 
d="M74 642l127 36v-569h112v-109h-239v642zM260 752l-240 -71v63l66 20q-11 2 -19.5 9.5t-14.5 18t-9.5 22.5t-3.5 21q0 31 14 55.5t35.5 42t46.5 26.5t47 9q23 0 44 -7.5t41 -33.5l-24.5 -20l-34.5 -29q-18 19 -45 19q-26 0 -37 -14t-11 -28q0 -13 7.5 -24t18.5 -18.5
t23 -12t21 -5.5l75 22v-65z" />
    <glyph glyph-name="wawhamzafina" unicode="&#x624;" horiz-adv-x="530" arabic-form="final" 
d="M179 -229l-23 72q47 3 86 21q33 15 62.5 46.5t36.5 89.5h-125q-102 0 -145 43t-43 128q0 41 24.5 81t75 74t127 59t180.5 35q12 -66 18 -144t8 -167h87v-109h-87q-1 -17 -6 -41t-16.5 -49t-31 -50t-50.5 -45t-74.5 -32t-103.5 -12zM341 109q-1 48 -3.5 97t-10.5 98
q-38 -8 -70 -20t-55 -28.5t-36.5 -38.5t-14.5 -49q0 -29 17 -44t55 -15h118zM362 505l-240 -71v63l66 20q-11 2 -19.5 9.5t-14.5 18t-9.5 22.5t-3.5 21q0 31 14 55.5t35.5 42t46.5 26.5t47 9q23 0 44 -7.5t41 -33.5l-24.5 -20l-34.5 -29q-18 19 -45 19q-26 0 -37 -14
t-11 -28q0 -13 7.5 -24t18.5 -18.5t23 -12t21 -5.5l75 22v-65z" />
    <glyph glyph-name="alefhamzabelowfina" unicode="&#x625;" horiz-adv-x="298" arabic-form="final" 
d="M74 642l127 36v-569h112v-109h-239v642zM251 -288l-240 -71v63l66 20q-11 2 -19.5 9.5t-14.5 18t-9.5 22.5t-3.5 21q0 31 14 55.5t35.5 42t46.5 26.5t47 9q23 0 44 -7.5t41 -33.5l-24.5 -20l-34.5 -29q-18 19 -45 19q-26 0 -37 -14t-11 -28q0 -13 7.5 -24t18.5 -18.5
t23 -12t21 -5.5l75 22v-65z" />
    <glyph glyph-name="hamzakirsehfina" unicode="&#x626;" horiz-adv-x="926" arabic-form="final" 
d="M629 426q67 0 112.5 -32t73.5 -79.5t41 -103t17 -102.5h83v-109h-191q0 82 -8 138.5t-21 93.5t-29 56.5t-32.5 28.5t-30.5 10.5t-24 1.5q-33 0 -59.5 -10t-45 -26t-29 -36t-10.5 -40q0 -10 4.5 -22t20.5 -12h100q15 0 28 -4.5t22.5 -16.5t15 -32t5.5 -50
q0 -135 -81.5 -197.5t-259.5 -62.5q-66 0 -119 19t-90 49.5t-57 68t-20 74.5q0 56 10.5 96.5t25 69.5t30.5 50.5t27 40.5h77q-26 -43 -45 -99t-19 -108q0 -27 11.5 -53t34 -46.5t55 -33t74.5 -12.5q79 0 121 7t62.5 21t27 36.5t14.5 53.5q1 3 1 8q0 12 -16 12h-51
q-39 0 -64.5 5.5t-40.5 17t-21 28t-6 37.5q0 39 16 85.5t50 86t86 66t124 26.5zM316 391l-240 -71v63l66 20q-11 2 -19.5 9.5t-14.5 18t-9.5 22.5t-3.5 21q0 31 14 55.5t35.5 42t46.5 26.5t47 9q23 0 44 -7.5t41 -33.5l-24.5 -20l-34.5 -29q-18 19 -45 19q-26 0 -37 -14
t-11 -28q0 -13 7.5 -24t18.5 -18.5t23 -12t21 -5.5l75 22v-65z" />
    <glyph glyph-name="hamzakirsehini" unicode="&#x626;" horiz-adv-x="399" arabic-form="initial" 
d="M-15 109h226v293l127 36l1 -438h-354v109zM332 501l-240 -71v63l66 20q-11 2 -19.5 9.5t-14.5 18t-9.5 22.5t-3.5 21q0 31 14 55.5t35.5 42t46.5 26.5t47 9q23 0 44 -7.5t41 -33.5l-24.5 -20l-34.5 -29q-18 19 -45 19q-26 0 -37 -14t-11 -28q0 -13 7.5 -24t18.5 -18.5
t23 -12t21 -5.5l75 22v-65z" />
    <glyph glyph-name="hamzakirsehmedi" unicode="&#x626;" arabic-form="medial" 
d="M-15 109h188v293l127 36v-329h161v-109h-476v109zM332 501l-240 -71v63l66 20q-11 2 -19.5 9.5t-14.5 18t-9.5 22.5t-3.5 21q0 31 14 55.5t35.5 42t46.5 26.5t47 9q23 0 44 -7.5t41 -33.5l-24.5 -20l-34.5 -29q-18 19 -45 19q-26 0 -37 -14t-11 -28q0 -13 7.5 -24
t18.5 -18.5t23 -12t21 -5.5l75 22v-65z" />
    <glyph glyph-name="aleffina" unicode="&#x627;" horiz-adv-x="298" arabic-form="final" 
d="M74 642l127 36v-569h112v-109h-239v642z" />
    <glyph glyph-name="behfina" unicode="&#x628;" horiz-adv-x="893" arabic-form="final" 
d="M243 0q-42 0 -78 7t-63 23t-42 42t-15 63q0 56 10.5 96.5t25 69.5t30.5 50.5t27 40.5h97q-18 -29 -34 -61t-26.5 -63.5t-13 -60t7 -50.5t33 -35t65.5 -13h428v290l120 38v-328h93v-109h-665zM386 -162q0 32 22.5 54.5t54.5 22.5q31 0 52.5 -22.5t21.5 -54.5
q0 -31 -21.5 -52.5t-52.5 -21.5q-32 0 -54.5 21.5t-22.5 52.5z" />
    <glyph glyph-name="behini" unicode="&#x628;" horiz-adv-x="399" arabic-form="initial" 
d="M-15 109h226v293l127 36l1 -438h-354v109zM107 -162q0 32 22.5 54.5t54.5 22.5q31 0 52.5 -22.5t21.5 -54.5q0 -31 -21.5 -52.5t-52.5 -21.5q-32 0 -54.5 21.5t-22.5 52.5z" />
    <glyph glyph-name="behmedi" unicode="&#x628;" arabic-form="medial" 
d="M-15 109h188v293l127 36v-329h161v-109h-476v109zM159 -162q0 32 22.5 54.5t54.5 22.5q31 0 52.5 -22.5t21.5 -54.5q0 -31 -21.5 -52.5t-52.5 -21.5q-32 0 -54.5 21.5t-22.5 52.5z" />
    <glyph glyph-name="tafina" unicode="&#x62a;" horiz-adv-x="893" arabic-form="final" 
d="M243 0q-42 0 -78 7t-63 23t-42 42t-15 63q0 56 10.5 96.5t25 69.5t30.5 50.5t27 40.5h97q-18 -29 -34 -61t-26.5 -63.5t-13 -60t7 -50.5t33 -35t65.5 -13h428v290l120 38v-328h93v-109h-665zM283 567q0 32 22.5 54.5t54.5 22.5q31 0 52.5 -22.5t21.5 -54.5
q0 -31 -21.5 -52.5t-52.5 -21.5q-32 0 -54.5 21.5t-22.5 52.5zM481 567q0 32 22.5 54.5t54.5 22.5q31 0 52.5 -22.5t21.5 -54.5q0 -31 -21.5 -52.5t-52.5 -21.5q-32 0 -54.5 21.5t-22.5 52.5z" />
    <glyph glyph-name="taini" unicode="&#x62a;" horiz-adv-x="399" arabic-form="initial" 
d="M-15 109h226v293l127 36l1 -438h-354v109zM27 567q0 32 22.5 54.5t54.5 22.5q31 0 52.5 -22.5t21.5 -54.5q0 -31 -21.5 -52.5t-52.5 -21.5q-32 0 -54.5 21.5t-22.5 52.5zM225 567q0 32 22.5 54.5t54.5 22.5q31 0 52.5 -22.5t21.5 -54.5q0 -31 -21.5 -52.5t-52.5 -21.5
q-32 0 -54.5 21.5t-22.5 52.5z" />
    <glyph glyph-name="tamedi" unicode="&#x62a;" arabic-form="medial" 
d="M-15 109h188v293l127 36v-329h161v-109h-476v109zM62 567q0 32 22.5 54.5t54.5 22.5q31 0 52.5 -22.5t21.5 -54.5q0 -31 -21.5 -52.5t-52.5 -21.5q-32 0 -54.5 21.5t-22.5 52.5zM260 567q0 32 22.5 54.5t54.5 22.5q31 0 52.5 -22.5t21.5 -54.5q0 -31 -21.5 -52.5
t-52.5 -21.5q-32 0 -54.5 21.5t-22.5 52.5z" />
    <glyph glyph-name="thafina" unicode="&#x62b;" horiz-adv-x="893" arabic-form="final" 
d="M243 0q-42 0 -78 7t-63 23t-42 42t-15 63q0 56 10.5 96.5t25 69.5t30.5 50.5t27 40.5h97q-18 -29 -34 -61t-26.5 -63.5t-13 -60t7 -50.5t33 -35t65.5 -13h428v290l120 38v-328h93v-109h-665zM289 567q0 32 22.5 54.5t54.5 22.5q31 0 52.5 -22.5t21.5 -54.5
q0 -31 -21.5 -52.5t-52.5 -21.5q-32 0 -54.5 21.5t-22.5 52.5zM487 567q0 32 22.5 54.5t54.5 22.5q31 0 52.5 -22.5t21.5 -54.5q0 -31 -21.5 -52.5t-52.5 -21.5q-32 0 -54.5 21.5t-22.5 52.5zM384 757q0 32 22.5 54.5t54.5 22.5q31 0 52.5 -22.5t21.5 -54.5q0 -31 -21.5 -53
t-52.5 -22q-32 0 -54.5 22t-22.5 53z" />
    <glyph glyph-name="thaini" unicode="&#x62b;" horiz-adv-x="399" arabic-form="initial" 
d="M-15 109h226v293l127 36l1 -438h-354v109zM31 567q0 32 22.5 54.5t54.5 22.5q31 0 52.5 -22.5t21.5 -54.5q0 -31 -21.5 -52.5t-52.5 -21.5q-32 0 -54.5 21.5t-22.5 52.5zM229 567q0 32 22.5 54.5t54.5 22.5q31 0 52.5 -22.5t21.5 -54.5q0 -31 -21.5 -52.5t-52.5 -21.5
q-32 0 -54.5 21.5t-22.5 52.5zM126 757q0 32 22.5 54.5t54.5 22.5q31 0 52.5 -22.5t21.5 -54.5q0 -31 -21.5 -53t-52.5 -22q-32 0 -54.5 22t-22.5 53z" />
    <glyph glyph-name="thamedi" unicode="&#x62b;" arabic-form="medial" 
d="M-15 109h188v293l127 36v-329h161v-109h-476v109zM62 567q0 32 22.5 54.5t54.5 22.5q31 0 52.5 -22.5t21.5 -54.5q0 -31 -21.5 -52.5t-52.5 -21.5q-32 0 -54.5 21.5t-22.5 52.5zM260 567q0 32 22.5 54.5t54.5 22.5q31 0 52.5 -22.5t21.5 -54.5q0 -31 -21.5 -52.5
t-52.5 -21.5q-32 0 -54.5 21.5t-22.5 52.5zM157 757q0 32 22.5 54.5t54.5 22.5q31 0 52.5 -22.5t21.5 -54.5q0 -31 -21.5 -53t-52.5 -22q-32 0 -54.5 22t-22.5 53z" />
    <glyph glyph-name="jeemfina" unicode="&#x62c;" horiz-adv-x="691" arabic-form="final" 
d="M551 -319q-89 -24 -172 -24q-62 0 -122 11.5t-107 38.5t-76 71t-29 109q0 63 24.5 123t71 111.5t113 91.5t149.5 64q-14 4 -30.5 11.5t-36.5 15t-43.5 13t-51.5 5.5q-26 0 -59.5 -16t-59.5 -48l-72 65q16 22 39 43t50 37t56.5 25.5t59.5 9.5q29 0 73 -18.5t104 -38.5
t107.5 -29.5t95.5 -8.5l-2 -134q-53 0 -94.5 -3t-85.5 -13q0 -27 13.5 -43.5t31.5 -25.5t35.5 -12t24.5 -3h148v-109h-161q-35 0 -67 14t-55 37t-35.5 52t-9.5 59q-57 -25 -98 -57t-67.5 -65t-39 -64.5t-12.5 -56.5q0 -39 19.5 -67.5t55 -47t85.5 -27.5t111 -9q28 0 58 2
t62 6zM298 -61q0 32 22.5 54.5t54.5 22.5q31 0 52.5 -22.5t21.5 -54.5q0 -31 -21.5 -52.5t-52.5 -21.5q-32 0 -54.5 21.5t-22.5 52.5z" />
    <glyph glyph-name="jeemini" unicode="&#x62c;" horiz-adv-x="684" arabic-form="initial" 
d="M634 0h-648l-1 109h452q-29 59 -51 99.5t-40.5 65t-35 35.5t-35.5 11q-26 0 -47.5 -15t-47.5 -47l-75 69q16 22 38.5 43t48.5 37t54.5 25.5t58.5 9.5q33 0 61 -17.5t56 -52.5t60.5 -89.5l74.5 -127.5q14 -24 33 -35t41 -11zM272 -162q0 32 22.5 54.5t54.5 22.5
q31 0 52.5 -22.5t21.5 -54.5q0 -31 -21.5 -52.5t-52.5 -21.5q-32 0 -54.5 21.5t-22.5 52.5z" />
    <glyph glyph-name="jeemmedi" unicode="&#x62c;" horiz-adv-x="656" arabic-form="medial" 
d="M671 0h-685l-1 109h452q-29 59 -51 99.5t-40.5 65t-35 35.5t-35.5 11q-26 0 -47.5 -15t-47.5 -47l-75 69q16 22 38.5 43t48.5 37t54.5 25.5t58.5 9.5q33 0 61 -17.5t56 -52.5t60.5 -89.5l74.5 -127.5q14 -24 33 -35t41 -11h40v-109zM289 -162q0 32 22.5 54.5t54.5 22.5
q31 0 52.5 -22.5t21.5 -54.5q0 -31 -21.5 -52.5t-52.5 -21.5q-32 0 -54.5 21.5t-22.5 52.5z" />
    <glyph glyph-name="haafina" unicode="&#x62d;" horiz-adv-x="691" arabic-form="final" 
d="M551 -319q-89 -24 -172 -24q-62 0 -122 11.5t-107 38.5t-76 71t-29 109q0 63 24.5 123t71 111.5t113 91.5t149.5 64q-14 4 -30.5 11.5t-36.5 15t-43.5 13t-51.5 5.5q-26 0 -59.5 -16t-59.5 -48l-72 65q16 22 39 43t50 37t56.5 25.5t59.5 9.5q29 0 73 -18.5t104 -38.5
t107.5 -29.5t95.5 -8.5l-2 -134q-53 0 -94.5 -3t-85.5 -13q0 -27 13.5 -43.5t31.5 -25.5t35.5 -12t24.5 -3h148v-109h-161q-35 0 -67 14t-55 37t-35.5 52t-9.5 59q-57 -25 -98 -57t-67.5 -65t-39 -64.5t-12.5 -56.5q0 -39 19.5 -67.5t55 -47t85.5 -27.5t111 -9q28 0 58 2
t62 6z" />
    <glyph glyph-name="haaini" unicode="&#x62d;" horiz-adv-x="684" arabic-form="initial" 
d="M634 0h-648l-1 109h452q-29 59 -51 99.5t-40.5 65t-35 35.5t-35.5 11q-26 0 -47.5 -15t-47.5 -47l-75 69q16 22 38.5 43t48.5 37t54.5 25.5t58.5 9.5q33 0 61 -17.5t56 -52.5t60.5 -89.5l74.5 -127.5q14 -24 33 -35t41 -11z" />
    <glyph glyph-name="haamedi" unicode="&#x62d;" horiz-adv-x="656" arabic-form="medial" 
d="M671 0h-685l-1 109h452q-29 59 -51 99.5t-40.5 65t-35 35.5t-35.5 11q-26 0 -47.5 -15t-47.5 -47l-75 69q16 22 38.5 43t48.5 37t54.5 25.5t58.5 9.5q33 0 61 -17.5t56 -52.5t60.5 -89.5l74.5 -127.5q14 -24 33 -35t41 -11h40v-109z" />
    <glyph glyph-name="khafina" unicode="&#x62e;" horiz-adv-x="691" arabic-form="final" 
d="M551 -319q-89 -24 -172 -24q-62 0 -122 11.5t-107 38.5t-76 71t-29 109q0 63 24.5 123t71 111.5t113 91.5t149.5 64q-14 4 -30.5 11.5t-36.5 15t-43.5 13t-51.5 5.5q-26 0 -59.5 -16t-59.5 -48l-72 65q16 22 39 43t50 37t56.5 25.5t59.5 9.5q29 0 73 -18.5t104 -38.5
t107.5 -29.5t95.5 -8.5l-2 -134q-53 0 -94.5 -3t-85.5 -13q0 -27 13.5 -43.5t31.5 -25.5t35.5 -12t24.5 -3h148v-109h-161q-35 0 -67 14t-55 37t-35.5 52t-9.5 59q-57 -25 -98 -57t-67.5 -65t-39 -64.5t-12.5 -56.5q0 -39 19.5 -67.5t55 -47t85.5 -27.5t111 -9q28 0 58 2
t62 6zM270 567q0 32 22.5 54.5t54.5 22.5q31 0 52.5 -22.5t21.5 -54.5q0 -31 -21.5 -52.5t-52.5 -21.5q-32 0 -54.5 21.5t-22.5 52.5z" />
    <glyph glyph-name="khaini" unicode="&#x62e;" horiz-adv-x="684" arabic-form="initial" 
d="M634 0h-648l-1 109h452q-29 59 -51 99.5t-40.5 65t-35 35.5t-35.5 11q-26 0 -47.5 -15t-47.5 -47l-75 69q16 22 38.5 43t48.5 37t54.5 25.5t58.5 9.5q33 0 61 -17.5t56 -52.5t60.5 -89.5l74.5 -127.5q14 -24 33 -35t41 -11zM250 567q0 32 22.5 54.5t54.5 22.5
q31 0 52.5 -22.5t21.5 -54.5q0 -31 -21.5 -52.5t-52.5 -21.5q-32 0 -54.5 21.5t-22.5 52.5z" />
    <glyph glyph-name="khamedi" unicode="&#x62e;" horiz-adv-x="656" arabic-form="medial" 
d="M671 0h-685l-1 109h452q-29 59 -51 99.5t-40.5 65t-35 35.5t-35.5 11q-26 0 -47.5 -15t-47.5 -47l-75 69q16 22 38.5 43t48.5 37t54.5 25.5t58.5 9.5q33 0 61 -17.5t56 -52.5t60.5 -89.5l74.5 -127.5q14 -24 33 -35t41 -11h40v-109zM228 567q0 32 22.5 54.5t54.5 22.5
q31 0 52.5 -22.5t21.5 -54.5q0 -31 -21.5 -52.5t-52.5 -21.5q-32 0 -54.5 21.5t-22.5 52.5z" />
    <glyph glyph-name="dalfina" unicode="&#x62f;" horiz-adv-x="583" arabic-form="final" 
d="M59 124q11 -4 24 -8q11 -3 26 -5t33 -2h226q0 19 -6 50.5t-24 66.5t-53 69.5t-94 60.5l28 110q67 -18 123 -62q24 -19 48 -45.5t45 -62.5t36.5 -82.5t22.5 -104.5h104v-109h-465q-18 0 -33 2t-26 5q-13 4 -24 8z" />
    <glyph glyph-name="zalfina" unicode="&#x630;" horiz-adv-x="583" arabic-form="final" 
d="M59 124q11 -4 24 -8q11 -3 26 -5t33 -2h226q0 19 -6 50.5t-24 66.5t-53 69.5t-94 60.5l28 110q67 -18 123 -62q24 -19 48 -45.5t45 -62.5t36.5 -82.5t22.5 -104.5h104v-109h-465q-18 0 -33 2t-26 5q-13 4 -24 8zM190 567q0 32 22.5 54.5t54.5 22.5q31 0 52.5 -22.5
t21.5 -54.5q0 -31 -21.5 -52.5t-52.5 -21.5q-32 0 -54.5 21.5t-22.5 52.5z" />
    <glyph glyph-name="rafina" unicode="&#x631;" horiz-adv-x="362" arabic-form="final" 
d="M234 437q16 -87 23.5 -171t9.5 -157h110v-109h-110q-1 -17 -5.5 -41t-16 -49t-30.5 -50t-49.5 -45t-74 -32t-103.5 -12l-23 72q51 4 91 24q17 9 33.5 22t29.5 31.5t21 44t8 58.5q0 91 -4.5 186.5t-29.5 188.5z" />
    <glyph glyph-name="zafina" unicode="&#x632;" horiz-adv-x="362" arabic-form="final" 
d="M234 437q16 -87 23.5 -171t9.5 -157h110v-109h-110q-1 -17 -5.5 -41t-16 -49t-30.5 -50t-49.5 -45t-74 -32t-103.5 -12l-23 72q51 4 91 24q17 9 33.5 22t29.5 31.5t21 44t8 58.5q0 91 -4.5 186.5t-29.5 188.5zM67 567q0 32 22.5 54.5t54.5 22.5q31 0 52.5 -22.5
t21.5 -54.5q0 -31 -21.5 -52.5t-52.5 -21.5q-32 0 -54.5 21.5t-22.5 52.5z" />
    <glyph glyph-name="seenfina" unicode="&#x633;" horiz-adv-x="1248" arabic-form="final" 
d="M1121 109h142v-109h-142h-511q-21 -121 -95.5 -175t-198.5 -54q-66 0 -116.5 19t-85 49.5t-52 68t-17.5 74.5q0 56 10.5 96.5t25 69.5t30.5 50.5t27 40.5h77q-26 -43 -45 -99t-19 -108q0 -27 9 -53t28.5 -46.5t50 -33t72.5 -12.5q68 0 118 28t64 85q5 22 5 43v356l120 42
v-332h132v290l120 42v-332h131v290l120 42v-332z" />
    <glyph glyph-name="seenini" unicode="&#x633;" horiz-adv-x="828" arabic-form="initial" 
d="M-15 109h164v290l120 42v-332h132v290l120 42v-332h131v290l120 42v-441h-787v109z" />
    <glyph glyph-name="seenmedi" unicode="&#x633;" horiz-adv-x="904" arabic-form="medial" 
d="M-15 109h160v293l127 36v-329h127v293l127 36v-329h124v293l127 36v-329h142v-109h-934v109z" />
    <glyph glyph-name="sheenfina" unicode="&#x634;" horiz-adv-x="1248" arabic-form="final" 
d="M1121 109h142v-109h-142h-511q-21 -121 -95.5 -175t-198.5 -54q-66 0 -116.5 19t-85 49.5t-52 68t-17.5 74.5q0 56 10.5 96.5t25 69.5t30.5 50.5t27 40.5h77q-26 -43 -45 -99t-19 -108q0 -27 9 -53t28.5 -46.5t50 -33t72.5 -12.5q68 0 118 28t64 85q5 22 5 43v356l120 42
v-332h132v290l120 42v-332h131v290l120 42v-332zM636 567q0 32 22.5 54.5t54.5 22.5q31 0 52.5 -22.5t21.5 -54.5q0 -31 -21.5 -52.5t-52.5 -21.5q-32 0 -54.5 21.5t-22.5 52.5zM834 567q0 32 22.5 54.5t54.5 22.5q31 0 52.5 -22.5t21.5 -54.5q0 -31 -21.5 -52.5
t-52.5 -21.5q-32 0 -54.5 21.5t-22.5 52.5zM731 757q0 32 22.5 54.5t54.5 22.5q31 0 52.5 -22.5t21.5 -54.5q0 -31 -21.5 -53t-52.5 -22q-32 0 -54.5 22t-22.5 53z" />
    <glyph glyph-name="sheenini" unicode="&#x634;" horiz-adv-x="828" arabic-form="initial" 
d="M-15 109h164v290l120 42v-332h132v290l120 42v-332h131v290l120 42v-441h-787v109zM281 567q0 32 22.5 54.5t54.5 22.5q31 0 52.5 -22.5t21.5 -54.5q0 -31 -21.5 -52.5t-52.5 -21.5q-32 0 -54.5 21.5t-22.5 52.5zM479 567q0 32 22.5 54.5t54.5 22.5q31 0 52.5 -22.5
t21.5 -54.5q0 -31 -21.5 -52.5t-52.5 -21.5q-32 0 -54.5 21.5t-22.5 52.5zM376 757q0 32 22.5 54.5t54.5 22.5q31 0 52.5 -22.5t21.5 -54.5q0 -31 -21.5 -53t-52.5 -22q-32 0 -54.5 22t-22.5 53z" />
    <glyph glyph-name="sheenmedi" unicode="&#x634;" horiz-adv-x="904" arabic-form="medial" 
d="M-15 109h160v293l127 36v-329h127v293l127 36v-329h124v293l127 36v-329h142v-109h-934v109zM287 567q0 32 22.5 54.5t54.5 22.5q31 0 52.5 -22.5t21.5 -54.5q0 -31 -21.5 -52.5t-52.5 -21.5q-32 0 -54.5 21.5t-22.5 52.5zM485 567q0 32 22.5 54.5t54.5 22.5
q31 0 52.5 -22.5t21.5 -54.5q0 -31 -21.5 -52.5t-52.5 -21.5q-32 0 -54.5 21.5t-22.5 52.5zM382 757q0 32 22.5 54.5t54.5 22.5q31 0 52.5 -22.5t21.5 -54.5q0 -31 -21.5 -53t-52.5 -22q-32 0 -54.5 22t-22.5 53z" />
    <glyph glyph-name="sadfina" unicode="&#x635;" horiz-adv-x="1199" arabic-form="final" 
d="M995 109v54q0 57 -31 92t-88 35q-117 0 -265 -181h384zM1214 0h-604q-21 -121 -95.5 -175t-198.5 -54q-66 0 -116.5 19t-85 49.5t-52 68t-17.5 74.5q0 56 10.5 96.5t25 69.5t30.5 50.5t27 40.5h77q-26 -43 -45 -99t-19 -108q0 -27 9 -53t28.5 -46.5t50 -33t72.5 -12.5
q68 0 118 28t64 85q5 22 5 43v311l120 35l1 -147q89 85 165.5 127t154.5 42q60 0 97 -30.5t57.5 -76t27.5 -98t7 -97.5h86v-109z" />
    <glyph glyph-name="sadini" unicode="&#x635;" horiz-adv-x="781" arabic-form="initial" 
d="M583 109v54q0 57 -31 92t-88 35q-117 0 -265 -181h384zM79 109v244l127 36l1 -147q89 85 165.5 127t154.5 42q60 0 97 -30.5t57.5 -76t27.5 -98t7 -97.5v-109h-731v109h94z" />
    <glyph glyph-name="sadmedi" unicode="&#x635;" horiz-adv-x="788" arabic-form="medial" 
d="M583 109v54q0 57 -31 92t-88 35q-117 0 -265 -181h384zM79 109v244l127 36l1 -147q89 85 165.5 127t154.5 42q60 0 96.5 -30.5t57 -76t27.5 -98t8 -97.5h87v-109h-818v109h94z" />
    <glyph glyph-name="dadfina" unicode="&#x636;" horiz-adv-x="1199" arabic-form="final" 
d="M995 109v54q0 57 -31 92t-88 35q-117 0 -265 -181h384zM1214 0h-604q-21 -121 -95.5 -175t-198.5 -54q-66 0 -116.5 19t-85 49.5t-52 68t-17.5 74.5q0 56 10.5 96.5t25 69.5t30.5 50.5t27 40.5h77q-26 -43 -45 -99t-19 -108q0 -27 9 -53t28.5 -46.5t50 -33t72.5 -12.5
q68 0 118 28t64 85q5 22 5 43v311l120 35l1 -147q89 85 165.5 127t154.5 42q60 0 97 -30.5t57.5 -76t27.5 -98t7 -97.5h86v-109zM727 567q0 32 22.5 54.5t54.5 22.5q31 0 52.5 -22.5t21.5 -54.5q0 -31 -21.5 -52.5t-52.5 -21.5q-32 0 -54.5 21.5t-22.5 52.5z" />
    <glyph glyph-name="dadini" unicode="&#x636;" horiz-adv-x="781" arabic-form="initial" 
d="M583 109v54q0 57 -31 92t-88 35q-117 0 -265 -181h384zM79 109v244l127 36l1 -147q89 85 165.5 127t154.5 42q60 0 97 -30.5t57.5 -76t27.5 -98t7 -97.5v-109h-731v109h94zM347 567q0 32 22.5 54.5t54.5 22.5q31 0 52.5 -22.5t21.5 -54.5q0 -31 -21.5 -52.5t-52.5 -21.5
q-32 0 -54.5 21.5t-22.5 52.5z" />
    <glyph glyph-name="dadmedi" unicode="&#x636;" horiz-adv-x="788" arabic-form="medial" 
d="M583 109v54q0 57 -31 92t-88 35q-117 0 -265 -181h384zM79 109v244l127 36l1 -147q89 85 165.5 127t154.5 42q60 0 96.5 -30.5t57 -76t27.5 -98t8 -97.5h87v-109h-818v109h94zM347 567q0 32 22.5 54.5t54.5 22.5q31 0 52.5 -22.5t21.5 -54.5q0 -31 -21.5 -52.5
t-52.5 -21.5q-32 0 -54.5 21.5t-22.5 52.5z" />
    <glyph glyph-name="tahfina" unicode="&#x637;" horiz-adv-x="917" arabic-form="final" 
d="M712 109v54q0 57 -31 92t-88 35q-117 0 -265 -181h384zM208 109v533l127 36l1 -436q89 85 165.5 127t154.5 42q60 0 96.5 -30.5t57 -76t27.5 -98t8 -97.5h87v-109h-799l-19 109h94z" />
    <glyph glyph-name="tahini" unicode="&#x637;" horiz-adv-x="781" arabic-form="initial" 
d="M583 109v54q0 57 -31 92t-88 35q-117 0 -265 -181h384zM79 109v533l127 36l1 -436q89 85 165.5 127t154.5 42q60 0 96.5 -30.5t57 -76t28 -98t7.5 -97.5v-109h-731v109h94z" />
    <glyph glyph-name="tahmedi" unicode="&#x637;" horiz-adv-x="788" arabic-form="medial" 
d="M583 109v54q0 57 -31 92t-88 35q-117 0 -265 -181h384zM79 109v533l127 36l1 -436q89 85 165.5 127t154.5 42q60 0 96.5 -30.5t57 -76t27.5 -98t8 -97.5h87v-109h-818v109h94z" />
    <glyph glyph-name="zadfina" unicode="&#x638;" horiz-adv-x="917" arabic-form="final" 
d="M712 109v54q0 57 -31 92t-88 35q-117 0 -265 -181h384zM208 109v533l127 36l1 -436q89 85 165.5 127t154.5 42q60 0 96.5 -30.5t57 -76t27.5 -98t8 -97.5h87v-109h-799l-19 109h94zM516 567q0 32 22.5 54.5t54.5 22.5q31 0 52.5 -22.5t21.5 -54.5q0 -31 -21.5 -52.5
t-52.5 -21.5q-32 0 -54.5 21.5t-22.5 52.5z" />
    <glyph glyph-name="zadini" unicode="&#x638;" horiz-adv-x="781" arabic-form="initial" 
d="M583 109v54q0 57 -31 92t-88 35q-117 0 -265 -181h384zM79 109v533l127 36l1 -436q89 85 165.5 127t154.5 42q60 0 96.5 -30.5t57 -76t28 -98t7.5 -97.5v-109h-731v109h94zM383 567q0 32 22.5 54.5t54.5 22.5q31 0 52.5 -22.5t21.5 -54.5q0 -31 -21.5 -52.5t-52.5 -21.5
q-32 0 -54.5 21.5t-22.5 52.5z" />
    <glyph glyph-name="zadmedi" unicode="&#x638;" horiz-adv-x="788" arabic-form="medial" 
d="M583 109v54q0 57 -31 92t-88 35q-117 0 -265 -181h384zM79 109v533l127 36l1 -436q89 85 165.5 127t154.5 42q60 0 96.5 -30.5t57 -76t27.5 -98t8 -97.5h87v-109h-818v109h94zM372 567q0 32 22.5 54.5t54.5 22.5q31 0 52.5 -22.5t21.5 -54.5q0 -31 -21.5 -52.5
t-52.5 -21.5q-32 0 -54.5 21.5t-22.5 52.5z" />
    <glyph glyph-name="aynfina" unicode="&#x639;" horiz-adv-x="602" arabic-form="final" 
d="M451 302q-11 13 -27 22.5t-34.5 16.5t-38 10.5t-35.5 3.5q-17 0 -36.5 -4t-38 -10.5t-34 -16.5t-24.5 -22l133 -171zM430 116q13 -4 23.5 -5.5t15.5 -1.5h148v-109h-161q-35 0 -71.5 14.5t-59.5 37.5q-82 -29 -124.5 -65.5t-42.5 -77.5q0 -27 9 -51.5t37 -43t78.5 -29
t133.5 -10.5q26 0 55 1.5t61 5.5l-1 -103q-91 -22 -174 -22q-50 0 -106 12.5t-103.5 39.5t-78.5 70t-31 104q0 34 14.5 66.5t38.5 61t55 52t64 39.5l-157 201q52 80 117.5 116t145.5 36t145.5 -35.5t118.5 -115.5z" />
    <glyph glyph-name="aynini" unicode="&#x639;" horiz-adv-x="598" arabic-form="initial" 
d="M-15 109h160q-20 26 -26.5 63.5t-6.5 79.5q0 81 65.5 128.5t180.5 50.5q42 2 95 -5t101 -16v-112q-15 4 -37.5 9t-49 9t-55 6.5t-55.5 2.5q-22 0 -41 -3t-33.5 -12t-22.5 -25t-8 -41q0 -54 10.5 -85.5t27.5 -49.5h268v-109h-573v109z" />
    <glyph glyph-name="aynmidi" unicode="&#x639;" horiz-adv-x="604" arabic-form="medial" 
d="M392 0q-32 0 -55 10.5t-40 40.5q-17 -30 -40 -40.5t-55 -10.5h-217v109h184l-135 172q52 80 117.5 116t145.5 36t145.5 -35.5t118.5 -115.5l-135 -173h193v-109h-227zM432 280q-11 13 -27 22.5t-34.5 16.5t-38 10.5t-35.5 3.5q-17 0 -36.5 -4t-38 -10.5t-34 -16.5
t-24.5 -22l133 -171z" />
    <glyph glyph-name="ghafina" unicode="&#x63a;" horiz-adv-x="602" arabic-form="final" 
d="M451 302q-11 13 -27 22.5t-34.5 16.5t-38 10.5t-35.5 3.5q-17 0 -36.5 -4t-38 -10.5t-34 -16.5t-24.5 -22l133 -171zM430 116q13 -4 23.5 -5.5t15.5 -1.5h148v-109h-161q-35 0 -71.5 14.5t-59.5 37.5q-82 -29 -124.5 -65.5t-42.5 -77.5q0 -27 9 -51.5t37 -43t78.5 -29
t133.5 -10.5q26 0 55 1.5t61 5.5l-1 -103q-91 -22 -174 -22q-50 0 -106 12.5t-103.5 39.5t-78.5 70t-31 104q0 34 14.5 66.5t38.5 61t55 52t64 39.5l-157 201q52 80 117.5 116t145.5 36t145.5 -35.5t118.5 -115.5zM240 567q0 32 22.5 54.5t54.5 22.5q31 0 52.5 -22.5
t21.5 -54.5q0 -31 -21.5 -52.5t-52.5 -21.5q-32 0 -54.5 21.5t-22.5 52.5z" />
    <glyph glyph-name="ghaini" unicode="&#x63a;" horiz-adv-x="598" arabic-form="initial" 
d="M-15 109h160q-20 26 -26.5 63.5t-6.5 79.5q0 81 65.5 128.5t180.5 50.5q42 2 95 -5t101 -16v-112q-15 4 -37.5 9t-49 9t-55 6.5t-55.5 2.5q-22 0 -41 -3t-33.5 -12t-22.5 -25t-8 -41q0 -54 10.5 -85.5t27.5 -49.5h268v-109h-573v109zM274 567q0 32 22.5 54.5t54.5 22.5
q31 0 52.5 -22.5t21.5 -54.5q0 -31 -21.5 -52.5t-52.5 -21.5q-32 0 -54.5 21.5t-22.5 52.5z" />
    <glyph glyph-name="ghamedi" unicode="&#x63a;" horiz-adv-x="604" arabic-form="medial" 
d="M392 0q-32 0 -55 10.5t-40 40.5q-17 -30 -40 -40.5t-55 -10.5h-217v109h184l-135 172q52 80 117.5 116t145.5 36t145.5 -35.5t118.5 -115.5l-135 -173h193v-109h-227zM432 280q-11 13 -27 22.5t-34.5 16.5t-38 10.5t-35.5 3.5q-17 0 -36.5 -4t-38 -10.5t-34 -16.5
t-24.5 -22l133 -171zM218 567q0 32 22.5 54.5t54.5 22.5q31 0 52.5 -22.5t21.5 -54.5q0 -31 -21.5 -52.5t-52.5 -21.5q-32 0 -54.5 21.5t-22.5 52.5z" />
    <glyph glyph-name="fafina" unicode="&#x641;" horiz-adv-x="949" arabic-form="final" 
d="M243 0q-42 0 -78 7t-63 23t-42 42t-15 63q0 56 10.5 96.5t25 69.5t30.5 50.5t27 40.5h97q-18 -29 -34 -61t-26.5 -63.5t-13 -60t7 -50.5t33 -35t65.5 -13h308q-17 9 -32.5 23.5t-27.5 32.5t-19.5 38t-7.5 40q0 98 56 151.5t166 53.5q50 0 83 -17t53 -45t29.5 -64
t12.5 -74t2.5 -74t-0.5 -65h74v-109h-721zM779 125q0 55 -2.5 97t-11.5 70.5t-27 42.5t-50 14q-29 0 -46.5 -9t-26.5 -21.5t-12 -27.5t-3 -27q0 -20 12 -43.5t34.5 -43.5t56 -34.5t76.5 -17.5zM615 567q0 32 22.5 54.5t54.5 22.5q31 0 52.5 -22.5t21.5 -54.5
q0 -31 -21.5 -52.5t-52.5 -21.5q-32 0 -54.5 21.5t-22.5 52.5z" />
    <glyph glyph-name="faini" unicode="&#x641;" horiz-adv-x="538" arabic-form="initial" 
d="M495 105q0 -105 -76 -105h-434v109h195q-17 9 -32.5 23.5t-27.5 32.5t-19.5 38t-7.5 40q0 98 56 151.5t166 53.5q51 0 84 -17.5t53 -46t29.5 -65t12.5 -75t2 -75t-1 -64.5zM384 125q0 55 -2.5 97t-11.5 70.5t-27 42.5t-50 14q-29 0 -46.5 -9t-26.5 -21.5t-12 -27.5
t-3 -27q0 -20 12 -43.5t34.5 -43.5t56 -34.5t76.5 -17.5zM229 567q0 32 22.5 54.5t54.5 22.5q31 0 52.5 -22.5t21.5 -54.5q0 -31 -21.5 -52.5t-52.5 -21.5q-32 0 -54.5 21.5t-22.5 52.5z" />
    <glyph glyph-name="famedi" unicode="&#x641;" horiz-adv-x="591" arabic-form="medial" 
d="M276 349q-36 0 -57.5 -9t-33 -21.5t-15 -27.5t-3.5 -27q0 -15 4 -35t15.5 -40t33 -37.5t56.5 -27.5q35 9 57 26.5t34 37.5t16 40.5t4 35.5q0 12 -3 27t-14.5 27.5t-33.5 21.5t-60 9zM-15 0v109h143q-33 19 -53 56t-20 78q0 49 16 87t45 64t70 40t91 14q104 0 163 -53.5
t59 -151.5q0 -41 -18.5 -78t-51.5 -56h177v-109h-256h-147h-218zM200 567q0 32 22.5 54.5t54.5 22.5q31 0 52.5 -22.5t21.5 -54.5q0 -31 -21.5 -52.5t-52.5 -21.5q-32 0 -54.5 21.5t-22.5 52.5z" />
    <glyph glyph-name="kaaffina" unicode="&#x642;" horiz-adv-x="830" arabic-form="final" 
d="M641 109q-1 48 -3.5 97t-10.5 98q-77 -17 -124 -49t-49 -87q0 -29 17 -44t55 -15h115zM313 -228q-46 0 -93.5 15.5t-86.5 47t-63.5 79t-24.5 112.5q0 56 10.5 96.5t25 69.5t30.5 50.5t27 40.5h77q-26 -43 -45 -99t-19 -108q0 -31 9.5 -66.5t30 -65.5t52 -50t75.5 -20h141
q33 0 63 4.5t54 18t41 38t24 65.5h-122q-51 0 -85.5 10t-56 30.5t-30.5 52t-9 73.5q0 41 22.5 82t70 76t122 60.5t178.5 35.5q14 -83 21 -159.5t9 -151.5h88v-109h-88q-1 -17 -5.5 -40.5t-16 -49t-30.5 -50.5t-49.5 -44.5t-74 -31.5t-103.5 -12h-169zM387 580
q0 32 22.5 54.5t54.5 22.5q31 0 52.5 -22.5t21.5 -54.5q0 -31 -21.5 -52.5t-52.5 -21.5q-32 0 -54.5 21.5t-22.5 52.5zM585 580q0 32 22.5 54.5t54.5 22.5q31 0 52.5 -22.5t21.5 -54.5q0 -31 -21.5 -52.5t-52.5 -21.5q-32 0 -54.5 21.5t-22.5 52.5z" />
    <glyph glyph-name="kaafini" unicode="&#x642;" horiz-adv-x="538" arabic-form="initial" 
d="M495 105q0 -105 -76 -105h-434v109h195q-17 9 -32.5 23.5t-27.5 32.5t-19.5 38t-7.5 40q0 98 56 151.5t166 53.5q51 0 84 -17.5t53 -46t29.5 -65t12.5 -75t2 -75t-1 -64.5zM384 125q0 55 -2.5 97t-11.5 70.5t-27 42.5t-50 14q-29 0 -46.5 -9t-26.5 -21.5t-12 -27.5
t-3 -27q0 -20 12 -43.5t34.5 -43.5t56 -34.5t76.5 -17.5zM101 567q0 32 22.5 54.5t54.5 22.5q31 0 52.5 -22.5t21.5 -54.5q0 -31 -21.5 -52.5t-52.5 -21.5q-32 0 -54.5 21.5t-22.5 52.5zM299 567q0 32 22.5 54.5t54.5 22.5q31 0 52.5 -22.5t21.5 -54.5q0 -31 -21.5 -52.5
t-52.5 -21.5q-32 0 -54.5 21.5t-22.5 52.5z" />
    <glyph glyph-name="kaafmedi" unicode="&#x642;" horiz-adv-x="591" arabic-form="medial" 
d="M276 349q-36 0 -57.5 -9t-33 -21.5t-15 -27.5t-3.5 -27q0 -15 4 -35t15.5 -40t33 -37.5t56.5 -27.5q35 9 57 26.5t34 37.5t16 40.5t4 35.5q0 12 -3 27t-14.5 27.5t-33.5 21.5t-60 9zM-15 0v109h143q-33 19 -53 56t-20 78q0 49 16 87t45 64t70 40t91 14q104 0 163 -53.5
t59 -151.5q0 -41 -18.5 -78t-51.5 -56h177v-109h-256h-147h-218zM98 567q0 32 22.5 54.5t54.5 22.5q31 0 52.5 -22.5t21.5 -54.5q0 -31 -21.5 -52.5t-52.5 -21.5q-32 0 -54.5 21.5t-22.5 52.5zM296 567q0 32 22.5 54.5t54.5 22.5q31 0 52.5 -22.5t21.5 -54.5
q0 -31 -21.5 -52.5t-52.5 -21.5q-32 0 -54.5 21.5t-22.5 52.5z" />
    <glyph glyph-name="kaffina" unicode="&#x643;" horiz-adv-x="874" arabic-form="final" 
d="M780 0h-537q-42 0 -78 7t-63 23t-42 42t-15 63q0 56 10.5 96.5t25 69.5t30.5 50.5t27 40.5h97q-18 -29 -34 -61t-26.5 -63.5t-13 -60t7 -50.5t33 -35t65.5 -13h394v533l127 36v-569h101v-109h-109zM546 350l-240 -71v63l66 20q-11 2 -19.5 9.5t-14.5 18t-9.5 22.5
t-3.5 21q0 31 14 55.5t35.5 42t46.5 26.5t47 9q23 0 44 -7.5t41 -33.5l-24.5 -20l-34.5 -29q-18 19 -45 19q-26 0 -37 -14t-11 -28q0 -13 7.5 -24t18.5 -18.5t23 -12t21 -5.5l75 22v-65z" />
    <glyph glyph-name="lamfina" unicode="&#x644;" horiz-adv-x="703" arabic-form="final" 
d="M609 0q-23 -122 -96 -175.5t-197 -53.5q-66 0 -116.5 19t-85 49.5t-52 68t-17.5 74.5q0 56 10.5 96.5t25 69.5t30.5 50.5t27 40.5h77q-26 -43 -45 -99t-19 -108q0 -27 9 -53t28.5 -46.5t50 -33t72.5 -12.5q80 0 129.5 38.5t49.5 117.5v599l127 36v-569h101v-109h-109z
" />
    <glyph glyph-name="lamini" unicode="&#x644;" horiz-adv-x="301" arabic-form="initial" 
d="M-15 109h133v533l127 36v-678h-260v109z" />
    <glyph glyph-name="lammedi" unicode="&#x644;" horiz-adv-x="362" arabic-form="medial" 
d="M377 109v-109h-392v109h133v533l127 36v-569h132z" />
    <glyph glyph-name="meemfina" unicode="&#x645;" horiz-adv-x="688" arabic-form="final" 
d="M222 185q54 111 103.5 170t94.5 59q66 0 110 -94q13 -28 26 -70.5t28 -102.5q4 -22 6 -38h113v-109h-146q-34 -61 -65 -61q-13 0 -28 7q-16 7 -38.5 20l-50.5 29l-61.5 33.5t-70.5 33.5q-18 7 -31.5 4t-22.5 -13t-13.5 -24t-4.5 -27v-232h-109v302q0 32 13.5 56.5
t36 39.5t51.5 19.5t59 -2.5zM479 70q-12 90 -31.5 145.5t-48.5 55.5q-10 0 -35 -23q-15 -15 -31.5 -41.5t-27.5 -47.5q61 -25 103.5 -48.5t70.5 -40.5z" />
    <glyph glyph-name="meemini" unicode="&#x645;" horiz-adv-x="519" arabic-form="initial" 
d="M478 87q-2 -26 -23 -66q-40 -82 -76 -82q-13 0 -28 7q-30 12 -81.5 37l-124.5 62q-17 -30 -39 -39q-17 -6 -56 -6h-65v109h74q30 69 63 125.5t65.5 96t63 61.5t56.5 22q66 0 110 -94q13 -28 26 -70.5t28 -102.5q9 -41 7 -60zM366 70q-12 90 -31.5 145.5t-48.5 55.5
q-10 0 -35 -23q-15 -15 -31.5 -41.5t-27.5 -47.5q42 -32 87 -54.5t87 -34.5z" />
    <glyph glyph-name="meemmedi" unicode="&#x645;" horiz-adv-x="568" arabic-form="medial" 
d="M379 -61q-13 0 -28 7q-30 12 -81.5 37l-124.5 62q-17 -30 -39 -39q-17 -6 -56 -6h-65v109h74q30 69 63 125.5t65.5 96t63 61.5t56.5 22q66 0 110 -94q13 -28 26 -70.5t28 -102.5q4 -22 6 -38h103v-109h-136q-34 -61 -65 -61zM366 70q-12 90 -31.5 145.5t-48.5 55.5
q-10 0 -35 -23q-15 -15 -31.5 -41.5t-27.5 -47.5q42 -32 87 -54.5t87 -34.5z" />
    <glyph glyph-name="nounfina" unicode="&#x646;" horiz-adv-x="714" arabic-form="final" 
d="M621 0q-19 -45 -48.5 -79t-65 -56.5t-75 -33.5t-78.5 -11h-41q-46 0 -93.5 15.5t-86.5 47t-63.5 79t-24.5 112.5q0 56 10.5 96.5t25 69.5t30.5 50.5t27 40.5h77q-26 -43 -45 -99t-19 -108q0 -31 9.5 -65.5t30 -63t52 -47.5t75.5 -19h41q44 0 75.5 19t52 47.5t30 63
t9.5 65.5q0 67 -8.5 137.5t-24.5 136.5l120 39q17 -73 25.5 -149t8.5 -148v-15.5t-1 -15.5h83v-109h-108zM291 512q0 32 22.5 54.5t54.5 22.5q31 0 52.5 -22.5t21.5 -54.5q0 -31 -21.5 -52.5t-52.5 -21.5q-32 0 -54.5 21.5t-22.5 52.5z" />
    <glyph glyph-name="nounini" unicode="&#x646;" horiz-adv-x="399" arabic-form="initial" 
d="M-15 109h226v293l127 36l1 -438h-354v109zM190 567q0 32 22.5 54.5t54.5 22.5q31 0 52.5 -22.5t21.5 -54.5q0 -31 -21.5 -52.5t-52.5 -21.5q-32 0 -54.5 21.5t-22.5 52.5z" />
    <glyph glyph-name="nounmedi" unicode="&#x646;" arabic-form="medial" 
d="M-15 109h188v293l127 36v-329h161v-109h-476v109zM154 567q0 32 22.5 54.5t54.5 22.5q31 0 52.5 -22.5t21.5 -54.5q0 -31 -21.5 -52.5t-52.5 -21.5q-32 0 -54.5 21.5t-22.5 52.5z" />
    <glyph glyph-name="haiso" unicode="&#x647;" horiz-adv-x="454" arabic-form="isolated" 
d="M329 165q0 12 -6.5 34t-20 45.5t-34 44t-49.5 29.5q-18 -10 -34.5 -27.5t-29.5 -37t-21 -38.5t-8 -32q0 -40 22 -65t65 -25q55 0 85.5 21.5t30.5 50.5zM436 162q0 -47 -21.5 -79.5t-54.5 -53.5t-72.5 -30.5t-74.5 -9.5t-69 9t-61 27t-44 44t-17 60q0 63 29 126.5
t90 108.5l-36 15l45 68q73 -14 127 -43t89 -67t52.5 -83.5t17.5 -91.5z" />
    <glyph glyph-name="hafina" unicode="&#x647;" horiz-adv-x="632" arabic-form="final" 
d="M74 182q0 42 24.5 82t76.5 72t133.5 55t194.5 31v-313h144v-109h-224q-11 7 -18.5 18t-12.5 22q-5 12 -8 25q-5 -19 -20 -33q-13 -12 -37.5 -22t-66.5 -10q-102 0 -144 48.5t-42 133.5zM195 200v-32q0 -29 17 -44t55 -15h115v199q-42 -8 -76.5 -20t-58.5 -26t-37.5 -30
t-14.5 -32z" />
    <glyph glyph-name="haini" unicode="&#x647;" horiz-adv-x="676" arabic-form="initial" 
d="M268 180q0 49 -17.5 79.5t-40.5 30.5q-12 0 -20.5 -8t-14 -20.5t-8 -27t-2.5 -27.5q0 -12 1.5 -29t7.5 -32.5t18 -26t34 -10.5q21 0 31.5 19.5t10.5 51.5zM606 0h-621v109h110q-20 14 -23 39.5t-3 57.5q0 23 7.5 49t21.5 49.5t33.5 40t43.5 20.5q-30 0 -50.5 7.5t-34 22
t-20.5 35t-11 46.5q76 -23 255 -39q81 -10 136.5 -32t90 -60.5t50 -95t15.5 -136.5v-113zM479 109q-2 48 -9 87.5t-24.5 69t-49 48t-82.5 24.5q27 -21 41 -59.5t14 -86.5q0 -24 -6.5 -46t-9.5 -37h126z" />
    <glyph glyph-name="hamedi" unicode="&#x647;" horiz-adv-x="689" arabic-form="medial" 
d="M268 180q0 49 -17.5 79.5t-40.5 30.5q-12 0 -20.5 -8t-14 -20.5t-8 -27t-2.5 -27.5q0 -12 1.5 -29t7.5 -32.5t18 -26t34 -10.5q21 0 31.5 19.5t10.5 51.5zM479 109q-2 48 -9 87.5t-24.5 69t-49 48t-82.5 24.5q27 -21 41 -59.5t14 -86.5q0 -24 -6.5 -46t-9.5 -37h126z
M606 109h98v-109h-98h-621v109h110q-20 14 -23 39.5t-3 57.5q0 23 7.5 49t21.5 49.5t33.5 40t43.5 20.5q-30 0 -50.5 7.5t-34 22t-20.5 35t-11 46.5q76 -23 255 -39q81 -10 136.5 -32t90 -60.5t50 -95t15.5 -136.5v-4z" />
    <glyph glyph-name="wawfina" unicode="&#x648;" horiz-adv-x="530" arabic-form="final" 
d="M179 -229l-23 72q47 3 86 21q33 15 62.5 46.5t36.5 89.5h-125q-102 0 -145 43t-43 128q0 41 24.5 81t75 74t127 59t180.5 35q12 -66 18 -144t8 -167h87v-109h-87q-1 -17 -6 -41t-16.5 -49t-31 -50t-50.5 -45t-74.5 -32t-103.5 -12zM341 109q-1 48 -3.5 97t-10.5 98
q-38 -8 -70 -20t-55 -28.5t-36.5 -38.5t-14.5 -49q0 -29 17 -44t55 -15h118z" />
    <glyph glyph-name="yaini" unicode="&#x6cc;" horiz-adv-x="399" arabic-form="initial" 
d="M-15 109h226v293l127 36l1 -438h-354v109zM0 -163q0 32 22.5 54.5t54.5 22.5q31 0 52.5 -22.5t21.5 -54.5q0 -31 -21.5 -52.5t-52.5 -21.5q-32 0 -54.5 21.5t-22.5 52.5zM198 -163q0 32 22.5 54.5t54.5 22.5q31 0 52.5 -22.5t21.5 -54.5q0 -31 -21.5 -52.5t-52.5 -21.5
q-32 0 -54.5 21.5t-22.5 52.5z" />
    <glyph glyph-name="yamedi" unicode="&#x6cc;" arabic-form="medial" 
d="M-15 109h188v293l127 36v-329h161v-109h-476v109zM58 -163q0 32 22.5 54.5t54.5 22.5q31 0 52.5 -22.5t21.5 -54.5q0 -31 -21.5 -52.5t-52.5 -21.5q-32 0 -54.5 21.5t-22.5 52.5zM256 -163q0 32 22.5 54.5t54.5 22.5q31 0 52.5 -22.5t21.5 -54.5q0 -31 -21.5 -52.5
t-52.5 -21.5q-32 0 -54.5 21.5t-22.5 52.5z" />
    <glyph glyph-name="tehmarboutaiso" unicode="&#x629;" horiz-adv-x="454" arabic-form="isolated" 
d="M329 165q0 12 -6.5 34t-20 45.5t-34 44t-49.5 29.5q-18 -10 -34.5 -27.5t-29.5 -37t-21 -38.5t-8 -32q0 -40 22 -65t65 -25q55 0 85.5 21.5t30.5 50.5zM436 162q0 -47 -21.5 -79.5t-54.5 -53.5t-72.5 -30.5t-74.5 -9.5t-69 9t-61 27t-44 44t-17 60q0 63 29 126.5
t90 108.5l-36 15l45 68q73 -14 127 -43t89 -67t52.5 -83.5t17.5 -91.5zM35 567q0 32 22.5 54.5t54.5 22.5q31 0 52.5 -22.5t21.5 -54.5q0 -31 -21.5 -52.5t-52.5 -21.5q-32 0 -54.5 21.5t-22.5 52.5zM233 567q0 32 22.5 54.5t54.5 22.5q31 0 52.5 -22.5t21.5 -54.5
q0 -31 -21.5 -52.5t-52.5 -21.5q-32 0 -54.5 21.5t-22.5 52.5z" />
    <glyph glyph-name="alefma2souraiso" unicode="&#x649;" horiz-adv-x="737" arabic-form="isolated" 
d="M551 54q2 9 -0.5 14.5t-14.5 5.5h-58q-28 0 -49 1.5t-35 8.5q-34 16 -43 48.5t1 72t37 80.5t64.5 75t82.5 56t93 22q28 0 41 -11t15.5 -27.5t-3 -35.5t-15.5 -36q-4 -8 -13.5 -9.5t-17.5 3.5q-21 13 -48 7t-52.5 -23t-43.5 -40.5t-21 -43.5q-1 -10 3 -23.5t22 -15.5h105
q15 0 28 -4.5t22.5 -16.5t15 -32t5.5 -50q0 -135 -81.5 -197.5t-259.5 -62.5q-66 0 -119 19t-90 49.5t-57 68t-20 74.5q0 56 10.5 96.5t25 69.5t30.5 50.5t27 40.5h77q-26 -43 -45 -99t-19 -108q0 -27 11.5 -53t34 -46.5t55 -33t74.5 -12.5q79 0 121 7t62.5 21t27 36.5
t14.5 53.5z" />
    <glyph glyph-name="kirsehini" unicode="&#x649;" horiz-adv-x="399" arabic-form="initial" 
d="M-15 109h226v293l127 36l1 -438h-354v109z" />
    <glyph glyph-name="kirsehmedi" unicode="&#x649;" arabic-form="medial" 
d="M-15 109h188v293l127 36v-329h161v-109h-476v109z" />
    <glyph glyph-name="tehmarboutafina" unicode="&#x629;" horiz-adv-x="632" arabic-form="final" 
d="M74 182q0 42 24.5 82t76.5 72t133.5 55t194.5 31v-313h144v-109h-224q-11 7 -18.5 18t-12.5 22q-5 12 -8 25q-5 -19 -20 -33q-13 -12 -37.5 -22t-66.5 -10q-102 0 -144 48.5t-42 133.5zM195 200v-32q0 -29 17 -44t55 -15h115v199q-42 -8 -76.5 -20t-58.5 -26t-37.5 -30
t-14.5 -32zM157 567q0 32 22.5 54.5t54.5 22.5q31 0 52.5 -22.5t21.5 -54.5q0 -31 -21.5 -52.5t-52.5 -21.5q-32 0 -54.5 21.5t-22.5 52.5zM355 567q0 32 22.5 54.5t54.5 22.5q31 0 52.5 -22.5t21.5 -54.5q0 -31 -21.5 -52.5t-52.5 -21.5q-32 0 -54.5 21.5t-22.5 52.5z" />
    <glyph glyph-name="yafina" unicode="&#x64a;" horiz-adv-x="926" arabic-form="final" 
d="M629 426q67 0 112.5 -32t73.5 -79.5t41 -103t17 -102.5h83v-109h-191q0 82 -8 138.5t-21 93.5t-29 56.5t-32.5 28.5t-30.5 10.5t-24 1.5q-33 0 -59.5 -10t-45 -26t-29 -36t-10.5 -40q0 -10 4.5 -22t20.5 -12h100q15 0 28 -4.5t22.5 -16.5t15 -32t5.5 -50
q0 -135 -81.5 -197.5t-259.5 -62.5q-66 0 -119 19t-90 49.5t-57 68t-20 74.5q0 56 10.5 96.5t25 69.5t30.5 50.5t27 40.5h77q-26 -43 -45 -99t-19 -108q0 -27 11.5 -53t34 -46.5t55 -33t74.5 -12.5q79 0 121 7t62.5 21t27 36.5t14.5 53.5q1 3 1 8q0 12 -16 12h-51
q-39 0 -64.5 5.5t-40.5 17t-21 28t-6 37.5q0 39 16 85.5t50 86t86 66t124 26.5zM175 -305q0 32 22.5 54.5t54.5 22.5q31 0 52.5 -22.5t21.5 -54.5q0 -31 -21.5 -52.5t-52.5 -21.5q-32 0 -54.5 21.5t-22.5 52.5zM373 -305q0 32 22.5 54.5t54.5 22.5q31 0 52.5 -22.5
t21.5 -54.5q0 -31 -21.5 -52.5t-52.5 -21.5q-32 0 -54.5 21.5t-22.5 52.5z" />
    <glyph glyph-name="vehiso" unicode="&#x6a4;" horiz-adv-x="798" arabic-form="isolated" 
d="M641 109q-1 48 -3.5 97t-10.5 98q-77 -17 -124 -49t-49 -87q0 -29 17 -44t55 -15h115zM459 -126q33 0 63 4.5t54 18t41 38t24 65.5h-122q-51 0 -85.5 10t-56 30.5t-30.5 52t-9 73.5q0 41 22.5 82t70 76t122 60.5t178.5 35.5q17 -106 24 -201.5t7 -189.5q0 -7 -1 -29
t-8 -50.5t-23.5 -60t-47.5 -57.5t-79.5 -43t-120.5 -17h-169q-46 0 -93.5 15.5t-86.5 47t-63.5 79t-24.5 112.5q0 56 10.5 96.5t25 69.5t30.5 50.5t27 40.5h77q-26 -43 -45 -99t-19 -108q0 -31 9.5 -66.5t30 -65.5t52 -50t75.5 -20h141zM388 567q0 32 22.5 54.5t54.5 22.5
q31 0 52.5 -22.5t21.5 -54.5q0 -31 -21.5 -52.5t-52.5 -21.5q-32 0 -54.5 21.5t-22.5 52.5zM586 567q0 32 22.5 54.5t54.5 22.5q31 0 52.5 -22.5t21.5 -54.5q0 -31 -21.5 -52.5t-52.5 -21.5q-32 0 -54.5 21.5t-22.5 52.5zM483 757q0 32 22.5 54.5t54.5 22.5q31 0 52.5 -22.5
t21.5 -54.5q0 -31 -21.5 -53t-52.5 -22q-32 0 -54.5 22t-22.5 53z" />
    <glyph glyph-name="vehfina" unicode="&#x6a4;" horiz-adv-x="834" arabic-form="final" 
d="M641 109q-1 48 -3.5 97t-10.5 98q-77 -17 -124 -49t-49 -87q0 -29 17 -44t55 -15h115zM313 -228q-46 0 -93.5 15.5t-86.5 47t-63.5 79t-24.5 112.5q0 56 10.5 96.5t25 69.5t30.5 50.5t27 40.5h77q-26 -43 -45 -99t-19 -108q0 -31 9.5 -66.5t30 -65.5t52 -50t75.5 -20h141
q33 0 63 4.5t54 18t41 38t24 65.5h-122q-51 0 -85.5 10t-56 30.5t-30.5 52t-9 73.5q0 41 22.5 82t70 76t122 60.5t178.5 35.5q14 -83 21 -159.5t9 -151.5h88v-109h-88q-1 -17 -5.5 -40.5t-16 -49t-30.5 -50.5t-49.5 -44.5t-74 -31.5t-103.5 -12h-169zM368 567
q0 32 22.5 54.5t54.5 22.5q31 0 52.5 -22.5t21.5 -54.5q0 -31 -21.5 -52.5t-52.5 -21.5q-32 0 -54.5 21.5t-22.5 52.5zM566 567q0 32 22.5 54.5t54.5 22.5q31 0 52.5 -22.5t21.5 -54.5q0 -31 -21.5 -52.5t-52.5 -21.5q-32 0 -54.5 21.5t-22.5 52.5zM463 757q0 32 22.5 54.5
t54.5 22.5q31 0 52.5 -22.5t21.5 -54.5q0 -31 -21.5 -53t-52.5 -22q-32 0 -54.5 22t-22.5 53z" />
    <glyph glyph-name="vehini" unicode="&#x6a4;" horiz-adv-x="538" arabic-form="initial" 
d="M495 105q0 -105 -76 -105h-434v109h195q-17 9 -32.5 23.5t-27.5 32.5t-19.5 38t-7.5 40q0 98 56 151.5t166 53.5q51 0 84 -17.5t53 -46t29.5 -65t12.5 -75t2 -75t-1 -64.5zM384 125q0 55 -2.5 97t-11.5 70.5t-27 42.5t-50 14q-29 0 -46.5 -9t-26.5 -21.5t-12 -27.5
t-3 -27q0 -20 12 -43.5t34.5 -43.5t56 -34.5t76.5 -17.5zM106 567q0 32 22.5 54.5t54.5 22.5q31 0 52.5 -22.5t21.5 -54.5q0 -31 -21.5 -52.5t-52.5 -21.5q-32 0 -54.5 21.5t-22.5 52.5zM304 567q0 32 22.5 54.5t54.5 22.5q31 0 52.5 -22.5t21.5 -54.5q0 -31 -21.5 -52.5
t-52.5 -21.5q-32 0 -54.5 21.5t-22.5 52.5zM201 757q0 32 22.5 54.5t54.5 22.5q31 0 52.5 -22.5t21.5 -54.5q0 -31 -21.5 -53t-52.5 -22q-32 0 -54.5 22t-22.5 53z" />
    <glyph glyph-name="vehmedi" unicode="&#x6a4;" horiz-adv-x="591" arabic-form="medial" 
d="M276 349q-36 0 -57.5 -9t-33 -21.5t-15 -27.5t-3.5 -27q0 -15 4 -35t15.5 -40t33 -37.5t56.5 -27.5q35 9 57 26.5t34 37.5t16 40.5t4 35.5q0 12 -3 27t-14.5 27.5t-33.5 21.5t-60 9zM-15 0v109h143q-33 19 -53 56t-20 78q0 49 16 87t45 64t70 40t91 14q104 0 163 -53.5
t59 -151.5q0 -41 -18.5 -78t-51.5 -56h177v-109h-256h-147h-218zM98 567q0 32 22.5 54.5t54.5 22.5q31 0 52.5 -22.5t21.5 -54.5q0 -31 -21.5 -52.5t-52.5 -21.5q-32 0 -54.5 21.5t-22.5 52.5zM296 567q0 32 22.5 54.5t54.5 22.5q31 0 52.5 -22.5t21.5 -54.5
q0 -31 -21.5 -52.5t-52.5 -21.5q-32 0 -54.5 21.5t-22.5 52.5zM193 757q0 32 22.5 54.5t54.5 22.5q31 0 52.5 -22.5t21.5 -54.5q0 -31 -21.5 -53t-52.5 -22q-32 0 -54.5 22t-22.5 53z" />
    <glyph glyph-name=".notdef" horiz-adv-x="500" 
d="M62 0v562h375v-562h-375zM125 62h250v438h-250v-438z" />
    <glyph glyph-name="NULL" horiz-adv-x="0" 
 />
    <glyph glyph-name="nonmarkingreturn" horiz-adv-x="256" 
 />
    <glyph glyph-name="space" unicode=" " horiz-adv-x="256" 
 />
    <glyph glyph-name="space" unicode="&#xa0;" horiz-adv-x="256" 
 />
    <glyph glyph-name="exclam" unicode="!" horiz-adv-x="256" 
d="M86 175l-17 319v172h127v-172l-18 -319h-92zM56 50q0 32 22.5 54.5t54.5 22.5q31 0 52.5 -22.5t21.5 -54.5q0 -31 -21.5 -52.5t-52.5 -21.5q-32 0 -54.5 21.5t-22.5 52.5z" />
    <glyph glyph-name="comma" unicode="," horiz-adv-x="246" 
d="M42 61q0 27 20 48t51 21q19 0 35.5 -9.5t28.5 -26.5t18.5 -39.5t6.5 -49.5q0 -76 -43 -131q-23 -28 -65 -58l-16 27l25.5 25.5t19.5 21.5q27 36 27 63t-54 39t-54 69z" />
    <glyph glyph-name="period" unicode="." horiz-adv-x="253" 
d="M51 72q0 32 22.5 54.5t54.5 22.5q31 0 52.5 -22.5t21.5 -54.5q0 -31 -21.5 -52.5t-52.5 -21.5q-32 0 -54.5 21.5t-22.5 52.5z" />
    <glyph glyph-name="colon" unicode=":" horiz-adv-x="253" 
d="M51 72q0 32 22.5 54.5t54.5 22.5q31 0 52.5 -22.5t21.5 -54.5q0 -31 -21.5 -52.5t-52.5 -21.5q-32 0 -54.5 21.5t-22.5 52.5zM51 355q0 32 22.5 54.5t54.5 22.5q31 0 52.5 -22.5t21.5 -54.5q0 -31 -21.5 -52.5t-52.5 -21.5q-32 0 -54.5 21.5t-22.5 52.5z" />
    <glyph glyph-name="semicolon" unicode=";" horiz-adv-x="259" 
d="M53 61q0 27 20 48t51 21q19 0 35.5 -9.5t28.5 -26.5t18.5 -39.5t6.5 -49.5q0 -76 -43 -131q-23 -28 -65 -58l-16 27l25.5 25.5t19.5 21.5q27 36 27 63t-54 39t-54 69zM51 355q0 32 22.5 54.5t54.5 22.5q31 0 52.5 -22.5t21.5 -54.5q0 -31 -21.5 -52.5t-52.5 -21.5
q-32 0 -54.5 21.5t-22.5 52.5z" />
    <glyph glyph-name="equal" unicode="=" horiz-adv-x="531" 
d="M79 219h393v-109h-393v109zM79 404h393v-109h-393v109z" />
    <glyph glyph-name="guillemotleft" unicode="&#xab;" horiz-adv-x="466" 
d="M317 153l-117 179l117 173h120l-124 -174l122 -178h-118zM139 153l-118 179l118 173h119l-123 -174l122 -178h-118z" />
    <glyph glyph-name="guillemotright" unicode="&#xbb;" horiz-adv-x="466" 
d="M330 153h-117l122 176l-122 176h117l117 -176zM153 153h-118l121 176l-121 176h118l117 -176z" />
    <glyph glyph-name="divide" unicode="&#xf7;" horiz-adv-x="539" 
d="M79 313h393v-109h-393v109zM194 72q0 32 22.5 54.5t54.5 22.5q31 0 52.5 -22.5t21.5 -54.5q0 -31 -21.5 -52.5t-52.5 -21.5q-32 0 -54.5 21.5t-22.5 52.5zM194 455q0 32 22.5 54.5t54.5 22.5q31 0 52.5 -22.5t21.5 -54.5q0 -31 -21.5 -52.5t-52.5 -21.5q-32 0 -54.5 21.5
t-22.5 52.5z" />
    <glyph glyph-name="arabiccoma" unicode="&#x60c;" horiz-adv-x="280" 
d="M220 69q0 -27 -20 -48t-51 -21q-20 0 -36 9.5t-28 26.5t-18.5 39.5t-6.5 49.5q0 76 43 131q23 28 65 58l16 -27l-25.5 -25.5t-19.5 -21.5q-27 -36 -27 -63t54 -39t54 -69z" />
    <glyph glyph-name="arabicsemicolon" unicode="&#x61b;" horiz-adv-x="280" 
d="M220 281q0 -27 -20 -48t-51 -21q-20 0 -36 9.5t-28 26.5t-18.5 39.5t-6.5 49.5q0 76 43 131q23 28 65 58l16 -27l-25.5 -25.5t-19.5 -21.5q-27 -36 -27 -63t54 -39t54 -69zM69 72q0 32 22.5 54.5t54.5 22.5q31 0 52.5 -22.5t21.5 -54.5q0 -31 -21.5 -52.5t-52.5 -21.5
q-32 0 -54.5 21.5t-22.5 52.5z" />
    <glyph glyph-name="arabicquestionmark" unicode="&#x61f;" horiz-adv-x="517" 
d="M220 175q0 26 -2 42t-7 26.5t-15 19t-25 19.5q-47 33 -73 57.5t-39 45.5t-15.5 41t-2.5 44q0 42 18 79.5t51.5 65.5t82 44.5t108.5 16.5q50 0 92 -10.5t75 -33.5l-45 -112q-26 26 -60.5 38t-69.5 12q-26 0 -48.5 -6t-40 -19t-27.5 -32t-10 -44q0 -12 3 -21t13 -21
t30 -28.5l53 -43.5q23 -18 38.5 -34t24.5 -35t13 -45.5t4 -65.5h-126zM206 50q0 32 22.5 54.5t54.5 22.5q31 0 52.5 -22.5t21.5 -54.5q0 -31 -21.5 -52.5t-52.5 -21.5q-32 0 -54.5 21.5t-22.5 52.5z" />
    <glyph glyph-name="tatweel" unicode="&#x640;" horiz-adv-x="342" 
d="M-10 109h362v-109h-362v109z" />
    <glyph glyph-name="fathatan" unicode="&#x64b;" horiz-adv-x="289" 
d="M38 738l225 64v-50l-225 -64v50zM38 831l225 64v-50l-225 -64v50z" />
    <glyph glyph-name="damatan" unicode="&#x64c;" horiz-adv-x="260" 
d="M190 830q-5 23 -12.5 38.5t-16.5 15.5q-8 -2 -12.5 -8t-6.5 -14q-3 -9 -4 -19q0 -11 6.5 -15.5t16.5 -4.5q7 0 14 2t15 5zM26 736q10 14 29 23t34 9q11 0 24.5 -8t21.5 -24q17 8 31 21t21 30l-18 -2.5t-22 -1.5q-20 0 -34 8.5t-14 35.5q0 21 6.5 39t17 32t23.5 22t26 8
q12 0 22.5 -8.5t18 -22.5t11.5 -31.5t4 -35.5q0 -34 -8 -57.5t-23 -40.5t-35.5 -29t-45.5 -21q-8 29 -18 38t-22 9q-11 0 -26.5 -10t-24.5 -19z" />
    <glyph glyph-name="kasratan" unicode="&#x64d;" horiz-adv-x="301" 
d="M38 -268l225 64v-50l-225 -64v50zM38 -175l225 64v-50l-225 -64v50z" />
    <glyph glyph-name="fatha" unicode="&#x64e;" horiz-adv-x="289" 
d="M38 738l225 64v-50l-225 -64v50z" />
    <glyph glyph-name="damma" unicode="&#x64f;" horiz-adv-x="233" 
d="M61 726q26 8 51.5 21.5t35.5 39.5q-8 -1 -22 -3t-28 -0.5t-25 8.5t-12 25q-2 22 3.5 41.5t16 34.5t23.5 24.5t26 10.5q10 1 20.5 -5.5t18.5 -18t13.5 -26.5t6.5 -31q3 -43 -7 -71t-28 -46t-42 -29.5t-51 -21.5v47zM151 830q-5 22 -12.5 38.5t-16.5 15.5q-11 -2 -16.5 -16
t-6.5 -21q-2 -20 15 -22.5t37 5.5z" />
    <glyph glyph-name="kasra" unicode="&#x650;" horiz-adv-x="289" 
d="M38 -198l225 64v-50l-225 -64v50z" />
    <glyph glyph-name="shaddah" unicode="&#x651;" horiz-adv-x="299" 
d="M65 796q0 -8 -0.5 -20t1.5 -22.5t7.5 -18t16.5 -7.5q14 0 21.5 12t7.5 29v36l46 12v-34q0 -15 5.5 -24.5t17.5 -9.5q14 0 21.5 11t7.5 28v38l46 12v-43q0 -50 -21 -73t-49 -23q-13 0 -28 4.5t-23 12.5q-11 -17 -24 -26.5t-31 -9.5q-17 0 -28.5 6.5t-18.5 17t-10 23
t-3 25.5v33z" />
    <glyph glyph-name="soukoun" unicode="&#x652;" horiz-adv-x="221" 
d="M114 719q26 0 33 10.5t7 22.5q0 21 -10 37.5t-30 16.5t-30 -16.5t-10 -37.5q0 -12 7 -22.5t33 -10.5zM113 680q-24 0 -40 6.5t-25.5 16.5t-13 23t-3.5 26q0 16 5 32t15.5 29t26 21t36.5 8t36.5 -8t26 -21t15.5 -29t5 -32q0 -13 -3.5 -26t-13 -23.5t-26 -16.5t-41.5 -6z
" />
    <glyph glyph-name="zeroarabic" unicode="&#x660;" horiz-adv-x="532" 
d="M268 679q58 0 102 -18.5t73 -60t43.5 -108t14.5 -162.5q0 -95 -14 -161t-43 -107.5t-73 -60.5t-103 -19q-52 0 -95 14t-73.5 53t-47.5 107t-17 176q0 94 14 160t43 107.5t72.5 60.5t103.5 19zM268 563q-23 0 -40 -6.5t-28 -30t-17 -70t-6 -126.5q0 -87 7 -134t19 -68.5
t28.5 -25.5t36.5 -4q22 0 39 6.5t28.5 30t17.5 69.5t6 126q0 87 -7 134.5t-19.5 69t-29 25.5t-35.5 4z" />
    <glyph glyph-name="zeroarabic" unicode="&#x6f0;" horiz-adv-x="532" 
d="M268 679q58 0 102 -18.5t73 -60t43.5 -108t14.5 -162.5q0 -95 -14 -161t-43 -107.5t-73 -60.5t-103 -19q-52 0 -95 14t-73.5 53t-47.5 107t-17 176q0 94 14 160t43 107.5t72.5 60.5t103.5 19zM268 563q-23 0 -40 -6.5t-28 -30t-17 -70t-6 -126.5q0 -87 7 -134t19 -68.5
t28.5 -25.5t36.5 -4q22 0 39 6.5t28.5 30t17.5 69.5t6 126q0 87 -7 134.5t-19.5 69t-29 25.5t-35.5 4z" />
    <glyph glyph-name="onearabic" unicode="&#x661;" horiz-adv-x="319" 
d="M279 0h-127v472q-28 -26 -59.5 -46.5t-66.5 -37.5l-1 127q48 26 91.5 68.5t62.5 94.5h100v-678z" />
    <glyph glyph-name="onearabic" unicode="&#x6f1;" horiz-adv-x="319" 
d="M279 0h-127v472q-28 -26 -59.5 -46.5t-66.5 -37.5l-1 127q48 26 91.5 68.5t62.5 94.5h100v-678z" />
    <glyph glyph-name="twoarabic" unicode="&#x662;" horiz-adv-x="543" 
d="M47 468q14 112 70.5 161.5t155.5 49.5q54 0 97 -15.5t73 -43t46 -64.5t16 -80q0 -36 -8.5 -62.5t-28.5 -52t-53 -56.5l-81 -76q-35 -32 -56.5 -61.5t-38.5 -58.5h266v-109h-470q6 33 15.5 63t29 63.5t53 72.5t86.5 90q22 21 47.5 39.5t47.5 38.5t36.5 43.5t14.5 55.5
q0 48 -25.5 72.5t-70.5 24.5q-41 0 -61 -22t-28 -73h-133z" />
    <glyph glyph-name="twoarabic" unicode="&#x6f2;" horiz-adv-x="543" 
d="M47 468q14 112 70.5 161.5t155.5 49.5q54 0 97 -15.5t73 -43t46 -64.5t16 -80q0 -36 -8.5 -62.5t-28.5 -52t-53 -56.5l-81 -76q-35 -32 -56.5 -61.5t-38.5 -58.5h266v-109h-470q6 33 15.5 63t29 63.5t53 72.5t86.5 90q22 21 47.5 39.5t47.5 38.5t36.5 43.5t14.5 55.5
q0 48 -25.5 72.5t-70.5 24.5q-41 0 -61 -22t-28 -73h-133z" />
    <glyph glyph-name="threearabic" unicode="&#x663;" horiz-adv-x="522" 
d="M31 501q19 95 71 137t145 42q47 0 87.5 -14t70 -38t46.5 -57t17 -71q0 -48 -25.5 -83.5t-83.5 -56.5q63 -13 100.5 -49t37.5 -102q0 -49 -18.5 -90.5t-51.5 -72t-78 -47.5t-97 -17q-54 0 -94 13.5t-67 39t-42.5 61.5t-21.5 81h125q11 -42 36.5 -61t62.5 -19
q43 0 70.5 30.5t27.5 87.5q0 54 -25.5 77t-67.5 23h-47l2 89h4q53 0 79 23t26 65q0 37 -20 59t-56 22q-31 0 -54.5 -18t-33.5 -54h-125z" />
    <glyph glyph-name="threearabic" unicode="&#x6f3;" horiz-adv-x="522" 
d="M31 501q19 95 71 137t145 42q47 0 87.5 -14t70 -38t46.5 -57t17 -71q0 -48 -25.5 -83.5t-83.5 -56.5q63 -13 100.5 -49t37.5 -102q0 -49 -18.5 -90.5t-51.5 -72t-78 -47.5t-97 -17q-54 0 -94 13.5t-67 39t-42.5 61.5t-21.5 81h125q11 -42 36.5 -61t62.5 -19
q43 0 70.5 30.5t27.5 87.5q0 54 -25.5 77t-67.5 23h-47l2 89h4q53 0 79 23t26 65q0 37 -20 59t-56 22q-31 0 -54.5 -18t-33.5 -54h-125z" />
    <glyph glyph-name="sevenarabic" unicode="&#x667;" horiz-adv-x="478" 
d="M25 678h424l1 -113q-40 -46 -78.5 -112t-69 -141.5t-51 -156t-24.5 -155.5h-135q4 72 22 148t46.5 149.5t67 142t83.5 126.5h-286v112z" />
    <glyph glyph-name="sevenarabic" unicode="&#x6f7;" horiz-adv-x="478" 
d="M25 678h424l1 -113q-40 -46 -78.5 -112t-69 -141.5t-51 -156t-24.5 -155.5h-135q4 72 22 148t46.5 149.5t67 142t83.5 126.5h-286v112z" />
    <glyph glyph-name="eightarabic" unicode="&#x668;" horiz-adv-x="531" 
d="M144 357q-54 23 -81 60.5t-27 85.5q0 41 15.5 74.5t44.5 57.5t70.5 37.5t94.5 13.5q51 0 92.5 -13.5t71 -37.5t45 -57.5t15.5 -74.5q0 -51 -29 -88t-77 -58q63 -24 95 -62.5t32 -99.5q0 -51 -17.5 -90.5t-49 -67t-75.5 -41.5t-97 -14q-54 0 -99.5 14t-78 40t-51 64.5
t-18.5 88.5q0 60 30.5 100.5t93.5 67.5zM168 493q0 -42 26.5 -63t66.5 -21q39 0 66 21t27 63q0 40 -26.5 63.5t-65.5 23.5q-40 0 -67 -23.5t-27 -63.5zM156 202q0 -29 8.5 -49t23.5 -33t34.5 -19t41.5 -6t41.5 5.5t33.5 18t22.5 32.5t8.5 50q0 52 -31.5 74t-76.5 22
q-51 0 -78.5 -26.5t-27.5 -68.5z" />
    <glyph glyph-name="eightarabic" unicode="&#x6f8;" horiz-adv-x="531" 
d="M144 357q-54 23 -81 60.5t-27 85.5q0 41 15.5 74.5t44.5 57.5t70.5 37.5t94.5 13.5q51 0 92.5 -13.5t71 -37.5t45 -57.5t15.5 -74.5q0 -51 -29 -88t-77 -58q63 -24 95 -62.5t32 -99.5q0 -51 -17.5 -90.5t-49 -67t-75.5 -41.5t-97 -14q-54 0 -99.5 14t-78 40t-51 64.5
t-18.5 88.5q0 60 30.5 100.5t93.5 67.5zM168 493q0 -42 26.5 -63t66.5 -21q39 0 66 21t27 63q0 40 -26.5 63.5t-65.5 23.5q-40 0 -67 -23.5t-27 -63.5zM156 202q0 -29 8.5 -49t23.5 -33t34.5 -19t41.5 -6t41.5 5.5t33.5 18t22.5 32.5t8.5 50q0 52 -31.5 74t-76.5 22
q-51 0 -78.5 -26.5t-27.5 -68.5z" />
    <glyph glyph-name="ninearabic" unicode="&#x669;" horiz-adv-x="534" 
d="M179 147q8 -31 27.5 -39.5t48.5 -8.5q21 0 39.5 5.5t33.5 26t25.5 59t14.5 104.5q-53 -62 -129 -62q-44 0 -82 18.5t-65.5 49t-43.5 70t-16 81.5q0 56 16.5 99t46.5 72.5t72 44.5t93 15q55 0 100 -18t77 -58t49.5 -102.5t17.5 -152.5q0 -102 -18 -172t-52 -114
t-81.5 -63.5t-105.5 -19.5q-83 0 -135 39t-68 126h135zM357 440q0 34 -8.5 58t-23 39t-33 21.5t-39.5 6.5q-20 0 -36.5 -4.5t-28.5 -17t-19 -34.5t-7 -56q0 -51 28 -83.5t70 -32.5q21 0 38.5 8t30.5 22.5t20.5 33t7.5 39.5z" />
    <glyph glyph-name="ninearabic" unicode="&#x6f9;" horiz-adv-x="534" 
d="M179 147q8 -31 27.5 -39.5t48.5 -8.5q21 0 39.5 5.5t33.5 26t25.5 59t14.5 104.5q-53 -62 -129 -62q-44 0 -82 18.5t-65.5 49t-43.5 70t-16 81.5q0 56 16.5 99t46.5 72.5t72 44.5t93 15q55 0 100 -18t77 -58t49.5 -102.5t17.5 -152.5q0 -102 -18 -172t-52 -114
t-81.5 -63.5t-105.5 -19.5q-83 0 -135 39t-68 126h135zM357 440q0 34 -8.5 58t-23 39t-33 21.5t-39.5 6.5q-20 0 -36.5 -4.5t-28.5 -17t-19 -34.5t-7 -56q0 -51 28 -83.5t70 -32.5q21 0 38.5 8t30.5 22.5t20.5 33t7.5 39.5z" />
    <glyph glyph-name="percentarabic" unicode="&#x66a;" horiz-adv-x="604" 
d="M190 0h-116l337 666h113zM51 591q0 32 22.5 54.5t54.5 22.5q31 0 52.5 -22.5t21.5 -54.5q0 -31 -21.5 -52.5t-52.5 -21.5q-32 0 -54.5 21.5t-22.5 52.5zM398 74q0 32 22.5 54.5t54.5 22.5q31 0 52.5 -22.5t21.5 -54.5q0 -31 -21.5 -52.5t-52.5 -21.5q-32 0 -54.5 21.5
t-22.5 52.5z" />
    <glyph glyph-name="arabicalefsuperscript" unicode="&#x670;" horiz-adv-x="156" 
d="M75 690h31v-159l-17 -2q-4 0 -14 -2v163z" />
    <glyph glyph-name="fourfarsi" unicode="&#x6f4;" horiz-adv-x="557" 
d="M461 678v-422h70v-113h-70v-143h-128v143h-300v112l299 423h129zM333 256v235l-168 -235h168z" />
    <glyph glyph-name="sixfarsi" unicode="&#x6f6;" horiz-adv-x="524" 
d="M358 517q-8 31 -27.5 39.5t-48.5 8.5q-21 0 -39.5 -5.5t-33.5 -26t-25.5 -59t-14.5 -104.5q53 62 129 62q44 0 82 -18.5t65.5 -49t43.5 -70t16 -81.5q0 -56 -16.5 -99.5t-46.5 -72.5t-72 -44t-93 -15q-55 0 -100 18t-77 58t-49.5 102.5t-17.5 152.5q0 102 18 172t52 114
t81 63.5t106 19.5q83 0 135 -39t68 -126h-135zM180 224q0 -35 8.5 -58.5t23 -38.5t33 -21.5t39.5 -6.5q19 0 36 4.5t29 17t19 34t7 56.5q0 51 -28 83.5t-70 32.5q-21 0 -38.5 -8t-30.5 -22.5t-20.5 -33t-7.5 -39.5z" />
    <glyph glyph-name="afii61664" unicode="&#x200c;" horiz-adv-x="22" 
d="M22 0h-22v795h22v-795z" />
    <glyph glyph-name="afii301" unicode="&#x200d;" horiz-adv-x="22" 
d="M78 730l-15 -14l-41 41v-757h-22v757l-41 -41l-15 14l53 53l-53 52l15 15l52 -53l52 53l15 -15l-52 -52z" />
    <glyph glyph-name="afii299" unicode="&#x200e;" horiz-adv-x="22" 
d="M148 783l-67 -67l-15 15l42 42h-86v-773h-22v795h106l-40 40l15 15z" />
    <glyph glyph-name="afii300" unicode="&#x200f;" horiz-adv-x="22" 
d="M22 0h-22v773h-86l42 -42l-15 -15l-67 67l67 67l15 -15l-40 -40h106v-795z" />
    <glyph glyph-name="madda" unicode="&#x653;" horiz-adv-x="436" 
d="M-28 790q13 -7 33.5 -10.5t46.5 -4t56 2t62 7.5l36 6.5l36 6.5q88 16 146 -3.5t90 -68.5q-25 14 -77 16t-115 -9q-20 -4 -41 -9t-41 -8q-83 -14 -142.5 6t-89.5 68z" />
    <glyph glyph-name="arabichamzaabove" unicode="&#x654;" horiz-adv-x="257" 
d="M241 752l-240 -71v63l66 20q-11 2 -19.5 9.5t-14.5 18t-9.5 22.5t-3.5 21q0 31 14 55.5t35.5 42t46.5 26.5t47 9q23 0 44 -7.5t41 -33.5l-24.5 -20l-34.5 -29q-18 19 -45 19q-26 0 -37 -14t-11 -28q0 -13 7.5 -24t18.5 -18.5t23 -12t21 -5.5l75 22v-65z" />
    <glyph glyph-name="arabichamzabelow" unicode="&#x655;" horiz-adv-x="244" 
d="M231 -288l-240 -71v63l66 20q-11 2 -19.5 9.5t-14.5 18t-9.5 22.5t-3.5 21q0 31 14 55.5t35.5 42t46.5 26.5t47 9q23 0 44 -7.5t41 -33.5l-24.5 -20l-34.5 -29q-18 19 -45 19q-26 0 -37 -14t-11 -28q0 -13 7.5 -24t18.5 -18.5t23 -12t21 -5.5l75 22v-65z" />
    <glyph glyph-name="uni066C" unicode="&#x66c;" horiz-adv-x="187" 
d="M41 686h99v-248h-99v248z" />
    <glyph glyph-name="uni066B" unicode="&#x66b;" horiz-adv-x="206" 
d="M240 235l-216 -413l-24 12l214 413z" />
    <glyph glyph-name="parenleft" unicode="(" horiz-adv-x="316" 
d="M277 694q-57 -100 -85 -208t-28 -229q0 -236 110 -439h-29q-108 112 -157.5 222.5t-49.5 219.5t50 217t160 217h29z" />
    <glyph glyph-name="parenright" unicode=")" horiz-adv-x="310" 
d="M67 694q110 -109 160 -217t50 -217t-49.5 -219.5t-157.5 -222.5h-29q110 203 110 439q0 121 -28 229t-85 208h29z" />
    <glyph glyph-name="multiply" unicode="&#xd7;" horiz-adv-x="501" 
d="M376 31l-101 100l-100 -100l-77 77l100 100l-100 101l77 77l100 -100l101 100l77 -77l-100 -101l100 -100z" />
    <glyph glyph-name="plus" unicode="+" horiz-adv-x="533" 
d="M221 12v142h-142v109h142v142h109v-142h142v-109h-142v-142h-109z" />
    <glyph glyph-name="hyphen" unicode="-" horiz-adv-x="523" 
d="M79 263h393v-109h-393v109z" />
    <glyph glyph-name="uni0656" unicode="&#x656;" horiz-adv-x="589" 
d="M327 -485l-35 -4l-11 147l46 6v-149z" />
    <glyph glyph-name="periodcentered" unicode="&#xb7;" horiz-adv-x="199" 
d="M100 300q12 0 21.5 -4t17.5 -12q15 -17 15 -39q0 -23 -15 -39q-8 -8 -17.5 -12t-21.5 -4q-21 0 -39 16q-16 18 -16 39q0 12 4 21.5t12 17.5q18 16 39 16z" />
    <glyph glyph-name="periodcentered" unicode="&#x2219;" horiz-adv-x="199" 
d="M100 300q12 0 21.5 -4t17.5 -12q15 -17 15 -39q0 -23 -15 -39q-8 -8 -17.5 -12t-21.5 -4q-21 0 -39 16q-16 18 -16 39q0 12 4 21.5t12 17.5q18 16 39 16z" />
    <glyph glyph-name="dottedcircle" unicode="&#x25cc;" horiz-adv-x="649" 
d="M49 387l25 -9q-4 -9 -6.5 -18.5t-4.5 -19.5t-3 -19.5l-2 -19.5h-27q3 44 18 86zM39 215q-6 21 -6 43l25 3q3 -38 20 -78l-26 -9q-5 10 -8 20t-5 21zM121 496l19 -21q-8 -6 -14.5 -13l-13.5 -15q-6 -8 -11.5 -16.5l-11.5 -17.5l-22 13q12 20 25.5 37.5t28.5 32.5zM97 99
q-7 8 -13 17l-13 19l24 13l10.5 -16l11.5 -16q7 -8 13.5 -14.5l14.5 -14.5l-18 -19q-19 16 -30 31zM192 544q11 5 20 9.5t20 7.5l9 -25q-39 -13 -71 -36l-17 23l20 11t19 10zM199 20l-19.5 10t-18.5 12l14 21l17.5 -10l17.5 -10q15 -7 37 -12l-6 -26q-23 7 -42 15zM298 574
q6 1 12 1h12h9.5t9.5 -1h10.5t9.5 -1l-3 -27q-9 1 -18.5 1.5t-18.5 0.5h-10t-11 -1q-11 0 -21 -3l-6 27q6 1 12.5 1.5t12.5 1.5zM347 -6q-6 -1 -11.5 -1h-11.5q-20 0 -42 3l4 26q16 -3 35 -3q10 0 21 1t22 3l6 -27q-6 -1 -12 -1.5t-11 -0.5zM445 548l19.5 -10t17.5 -13
l-15 -20q-16 11 -34 19q-9 5 -18 8t-19 6l8 25q22 -6 41 -15zM452 23q-11 -5 -20.5 -8.5l-19.5 -7.5l-10 25q21 7 38 16q19 10 34 19l16 -22q-9 -6 -19 -11.5zM546 469q7 -8 13 -17t12 -19l-23 -14q-8 16 -22 33l-12.5 14l-14.5 15l18 19l15.5 -15.5t13.5 -15.5zM552 106
q-14 -17 -30 -33l-18 20q14 11 27 29q13 16 22 33l24 -13q-6 -10 -12 -18.5t-13 -17.5zM605 353q5 -23 5 -43l-24 -3q-1 9 -2.5 19t-4.5 20l-6 19.5t-7 19.5l25 9q5 -10 8.5 -20t5.5 -21zM594 181l-24 9l5.5 19t4.5 19q4 19 6 39h26q-2 -44 -18 -86z" />
    <glyph glyph-name="minus" unicode="&#x2212;" horiz-adv-x="535" 
d="M79 263h393v-109h-393v109z" />
    <glyph glyph-name="fivefarsi" unicode="&#x6f5;" horiz-adv-x="560" 
d="M466 566h-237l-27 -132q23 12 47 16t48 4q94 0 151.5 -53t57.5 -160q0 -54 -17 -101.5t-47.5 -82t-74 -54.5t-97.5 -20q-99 0 -156.5 50t-73.5 138h135q11 -35 37.5 -55.5t58.5 -20.5q45 0 75.5 35.5t30.5 107.5q0 34 -8 55t-22.5 33t-34.5 16t-44 4q-48 0 -88 -34
l-128 1l71 365h343v-112z" />
    <glyph glyph-name="ellipsis" unicode="&#x2026;" horiz-adv-x="739" 
d="M51 72q0 32 22.5 54.5t54.5 22.5q31 0 52.5 -22.5t21.5 -54.5q0 -31 -21.5 -52.5t-52.5 -21.5q-32 0 -54.5 21.5t-22.5 52.5zM294 67q0 32 22.5 54.5t54.5 22.5q31 0 52.5 -22.5t21.5 -54.5q0 -31 -21.5 -52.5t-52.5 -21.5q-32 0 -54.5 21.5t-22.5 52.5zM538 67
q0 32 22.5 54.5t54.5 22.5q31 0 52.5 -22.5t21.5 -54.5q0 -31 -21.5 -52.5t-52.5 -21.5q-32 0 -54.5 21.5t-22.5 52.5z" />
    <glyph glyph-name="uni2010" unicode="&#x2010;" horiz-adv-x="411" 
d="M343 0h-275v73h275v-73z" />
    <glyph glyph-name="braceleft" unicode="{" horiz-adv-x="374" 
d="M24 204v110q32 1 51 11q16 8 28.5 27.5t16.5 48.5q5 23 5 77q0 44 1.5 75t6.5 49q8 35 29.5 56.5t63.5 32.5q27 9 87 9h25v-109q-49 0 -66 -7q-14 -5 -21 -16t-7 -40q0 -15 -1 -42.5t-3 -68.5q-2 -23 -4.5 -41t-7.5 -32q-11 -29 -25 -46q-7 -10 -18.5 -19.5t-26.5 -19.5
q28 -16 44 -37q18 -20 26.5 -50t11.5 -79q3 -78 3 -98q0 -29 8 -42q8 -11 22 -17q17 -7 65 -7v-110h-25q-31 0 -54.5 2.5t-39.5 7.5q-36 11 -57 32q-22 22 -30 57q-5 17 -6 43.5t-1 62.5q0 43 -2 69.5t-5 40.5q-11 35 -32 52q-20 18 -62 18z" />
    <glyph glyph-name="bar" unicode="|" horiz-adv-x="291" 
d="M214 700v-881h-127v881h127z" />
    <glyph glyph-name="braceright" unicode="}" horiz-adv-x="364" 
d="M338 204q-42 0 -62 -18q-21 -17 -32 -52q-3 -14 -5 -40.5t-2 -69.5q0 -36 -1 -62.5t-6 -43.5q-8 -35 -30 -57q-21 -21 -57 -32q-16 -5 -39.5 -7.5t-54.5 -2.5h-25v110q25 0 41 2t24 5q14 6 22 17q8 13 8 42q0 20 3 98q3 49 11.5 79t26.5 50q16 21 44 37
q-15 10 -26.5 19.5t-18.5 19.5q-14 17 -25 46q-5 14 -7.5 32t-4.5 41q-2 41 -3 68.5t-1 42.5q0 29 -7 40t-21 16q-8 3 -24 5t-42 2v109h25q60 0 87 -9q42 -11 63.5 -32.5t29.5 -56.5q5 -18 6.5 -49t1.5 -75q0 -54 5 -77q4 -29 16.5 -48.5t28.5 -27.5q19 -10 51 -11v-110z
" />
    <glyph glyph-name="bracketleft" unicode="[" horiz-adv-x="331" 
d="M61 -181v880h233v-104h-108v-672h108v-104h-233z" />
    <glyph glyph-name="bracketright" unicode="]" horiz-adv-x="336" 
d="M61 -181v104h108v672h-108v104h233v-880h-233z" />
    <glyph glyph-name="quotedbl" unicode="&#x22;" horiz-adv-x="371" 
d="M58 686h99v-248h-99v248zM226 686h99v-248h-99v248z" />
    <glyph glyph-name="numbersign" unicode="#" horiz-adv-x="608" 
d="M114 171h-61v97h79l26 130h-105v97h126l34 171h98l-34 -171h97l34 171h102l-36 -171h61v-97h-81l-26 -130h107v-97h-126l-35 -171h-99l35 171h-98l-34 -171h-100zM258 398l-27 -130h99l24 130h-96z" />
    <glyph glyph-name="dollar" unicode="$" horiz-adv-x="458" 
d="M209 86v178q-85 24 -123 72t-38 117q0 70 43 117t118 55v42h62v-42q67 -8 107 -46t51 -102l-108 -13q-9 50 -50 67v-166q102 -29 139 -72q36 -44 36 -113q0 -77 -46 -129q-46 -53 -129 -65v-79h-62v77q-74 9 -119.5 54.5t-58.5 129.5l111 12q6 -34 25 -58.5t42 -35.5z
M209 533q-26 -9 -40.5 -29.5t-14.5 -45.5q0 -22 13.5 -41.5t41.5 -31.5v148zM271 80q15 3 28 10t23 20q20 21 20 55q0 29 -16.5 49.5t-54.5 31.5v-166z" />
    <glyph glyph-name="percent" unicode="%" horiz-adv-x="841" 
d="M55 499q0 86 37.5 126.5t101.5 40.5q66 0 103 -40.5t37 -126.5q0 -85 -37.5 -125.5t-100.5 -40.5q-66 0 -103.5 40.5t-37.5 125.5zM150 500q0 -62 14 -82q10 -16 30 -16t30 16q14 20 14 82t-14 82q-11 17 -30 17t-30 -16q-14 -22 -14 -83zM286 0h-90l337 666h87zM481 165
q0 86 37.5 126.5t102.5 40.5q66 0 103 -40.5t37 -126.5q0 -85 -37.5 -126t-101.5 -41q-66 0 -103.5 41t-37.5 126zM576 165q0 -30 4 -50.5t10 -31.5q12 -16 30 -16q20 0 30 16q14 20 14 82q0 64 -13 83q-12 16 -31 16q-18 0 -30 -16q-6 -10 -10 -31t-4 -52z" />
    <glyph glyph-name="ampersand" unicode="&#x26;" horiz-adv-x="633" 
d="M615 89l-74 -96q-55 27 -106 74q-40 -35 -83.5 -51.5t-103.5 -16.5q-121 0 -181 67q-47 53 -47 121q0 126 147 197q-67 77 -67 141q0 58 47 100q47 41 133 41q85 0 131 -43q47 -44 47 -105q0 -38 -24 -74q-22 -36 -94 -79l91 -119q8 14 14.5 32.5t11.5 41.5l112 -26
q-9 -30 -16 -51t-13 -35q-12 -27 -27 -46q11 -10 24 -20.5t30 -22.5l28.5 -19t19.5 -11zM279 439l34 25q37 28 37 58q0 23 -18 40t-49 17q-29 0 -45.5 -15t-16.5 -34q0 -24 28 -56zM231 305q-43 -21 -63.5 -51.5t-20.5 -62.5q0 -40 25.5 -65t69.5 -25q29 0 55.5 11t58.5 38z
" />
    <glyph glyph-name="quotesingle" unicode="'" horiz-adv-x="183" 
d="M41 686h99v-248h-99v248z" />
    <glyph glyph-name="asterisk" unicode="*" horiz-adv-x="615" 
d="M586 210q0 -45 -11 -79t-32 -59q-41 -43 -111 -43q-3 0 -17 0.5t-41 11.5q4 29 9 47q0 -2 3 -2q9 -2 18.5 -3t19.5 -1q61 0 98 49q36 45 36 106q0 48 -31.5 114t-97.5 151l-74 96l-35 47q-13 -16 -13 -35q0 -25 25 -51l24.5 -25.5l34.5 -38.5q39 -44 51 -84v-4
q3 -12 3 -26q0 -18 -7 -32l45 42v-1q18 -60 18 -107q0 -27 -8 -43q-13 -29 -52 -74l-63 -69q-8 -16 -17 -89l-3.5 -38t-2.5 -24q-10 -52 -54 -52q-63 0 -103 90q4 2 7.5 5t7.5 5q27 -59 63 -59q2 0 4 0.5t4 0.5q27 8 38 50l11 72q2 17 5.5 31.5t7.5 28.5q1 5 4 10.5t7 11.5
q18 30 72 81l15 15q44 52 40 89q-8 -11 -44 -39q-32 -24 -42 -43q-5 14 -7 23.5t-4 13.5q-5 22 9 37q29 32 26 70q-1 9 -3.5 18.5t-8.5 18.5q-8 11 -28.5 35l-55.5 63q3 -18 3 -35q0 -56 -34 -120q-40 -73 -38 -132l-12 -11q-2 10 -2 19.5v18.5q0 49 44 152q27 64 27 100
q0 14 -11 42q-5 14 -7.5 25t-2.5 18q0 27 21 56q-22 41 -22 75q0 48 26 66q7 7 15 7q1 -1 1 -2l-1 -2q-26 -14 -26 -42q0 -44 40 -94l60.5 -77.5l42.5 -56.5q33 -46 57 -86.5t41 -75.5q20 -41 29 -80t9 -77zM241 528q1 -26 -26 -28q-28 -1 -29 27q0 26 27 28q26 0 28 -27z
M389 389q0 -5 -31 -39l-28 -31q-2 -3 -4.5 -6t-3.5 -7l-3 18q0 3 30 39l29 29q2 5 4 8t3 5zM501 154l-18 -42l-36 16l20 43zM386 229l-20 -42l-36 16l21 43zM168 374q1 -3 -3 -9l-20 -18q-11 -17 -11 -29q3 -9 9 -9q4 0 6 2q0 4 6 15q5 0 5 -4q0 -18 -13 -29q-6 -3 -9 -3
q-7 0 -11 10q-7 17 5 39q10 17 28 30q5 6 8 5zM315 237q3 -18 -18 -36l-39 -35q-4 -8 -5 -16q-9 -76 -15 -100q-15 -54 -51 -62q-4 -1 -8 -1.5t-11 -0.5q-73 0 -100 100q-9 37 -7 85q-1 0 -1 1v2q-9 16 -17 50q-3 17 -4 30.5t-1 24.5q7 83 76 137l57 35.5l69 44.5
q36 32 31 61l-1 -1q-10 -9 -20 -10q-26 0 -27 27q0 28 26 29q17 0 28 -17q5 -12 8.5 -29t3.5 -40q0 -26 -3.5 -45.5t-8.5 -33.5l-24 -50.5l-32 -71.5q-38 -88 -38 -181q0 -21 2 -40t6 -37q-2 -4 -5.5 -6.5l-6.5 -4.5q-5 26 -7.5 54.5t-1.5 60.5q0 47 9 92t29 90l56 122
q4 10 7 20.5t4 22.5q-10 -22 -31 -40q-26 -15 -53.5 -34t-58.5 -43q-65 -53 -72 -135q-1 -13 0 -26t5 -28q11 50 38 50q30 3 51 -56q6 -17 6 -40q0 -45 -33 -45q-27 0 -49 30v-5q0 -42 14 -69q20 -37 57 -37q33 0 54.5 36.5t29.5 109.5q5 31 17 41l40 38q17 16 19 24z
M335 112q-2 -8 -4 -18t-4 -22q-20 17 -36 39t-27 49l13 12q20 -34 58 -60zM434 -33q3 -11 -5 -14q-9 -5 -22 9q-8 11 -12 22l-6 16q-2 4 1 7q3 2 5 -6t10 -21q4 -9 14 -6q3 3 3 8v6q8 -3 12 -21zM314 52l-31 -35l-29 26l29 34zM307 -9l-30 -35l-30 25l30 36zM139 186
q-6 18 -21 18q-24 0 -36 -35q13 -11 28 -11q28 0 29 28z" />
    <glyph glyph-name="zero" unicode="0" horiz-adv-x="558" 
d="M268 679q58 0 102 -18.5t73 -60t43.5 -108t14.5 -162.5q0 -95 -14 -161t-43 -107.5t-73 -60.5t-103 -19q-52 0 -95 14t-73.5 53t-47.5 107t-17 176q0 94 14 160t43 107.5t72.5 60.5t103.5 19zM268 563q-23 0 -40 -6.5t-28 -30t-17 -70t-6 -126.5q0 -87 7 -134t19 -68.5
t28.5 -25.5t36.5 -4q22 0 39 6.5t28.5 30t17.5 69.5t6 126q0 87 -7 134.5t-19.5 69t-29 25.5t-35.5 4z" />
    <glyph glyph-name="one" unicode="1" horiz-adv-x="340" 
d="M279 0h-127v472q-28 -26 -59.5 -46.5t-66.5 -37.5l-1 127q48 26 91.5 68.5t62.5 94.5h100v-678z" />
    <glyph glyph-name="two" unicode="2" horiz-adv-x="543" 
d="M47 468q14 112 70.5 161.5t155.5 49.5q54 0 97 -15.5t73 -43t46 -64.5t16 -80q0 -36 -8.5 -62.5t-28.5 -52t-53 -56.5l-81 -76q-35 -32 -56.5 -61.5t-38.5 -58.5h266v-109h-470q6 33 15.5 63t29 63.5t53 72.5t86.5 90q22 21 47.5 39.5t47.5 38.5t36.5 43.5t14.5 55.5
q0 48 -25.5 72.5t-70.5 24.5q-41 0 -61 -22t-28 -73h-133z" />
    <glyph glyph-name="three" unicode="3" horiz-adv-x="516" 
d="M31 501q19 95 71 137t145 42q47 0 87.5 -14t70 -38t46.5 -57t17 -71q0 -48 -25.5 -83.5t-83.5 -56.5q63 -13 100.5 -49t37.5 -102q0 -49 -18.5 -90.5t-51.5 -72t-78 -47.5t-97 -17q-54 0 -94 13.5t-67 39t-42.5 61.5t-21.5 81h125q11 -42 36.5 -61t62.5 -19
q43 0 70.5 30.5t27.5 87.5q0 54 -25.5 77t-67.5 23h-47l2 89h4q53 0 79 23t26 65q0 37 -20 59t-56 22q-31 0 -54.5 -18t-33.5 -54h-125z" />
    <glyph glyph-name="four" unicode="4" horiz-adv-x="556" 
d="M461 678v-422h70v-113h-70v-143h-128v143h-300v112l299 423h129zM333 256v235l-168 -235h168z" />
    <glyph glyph-name="five" unicode="5" horiz-adv-x="537" 
d="M466 566h-237l-27 -132q23 12 47 16t48 4q94 0 151.5 -53t57.5 -160q0 -54 -17 -101.5t-47.5 -82t-74 -54.5t-97.5 -20q-99 0 -156.5 50t-73.5 138h135q11 -35 37.5 -55.5t58.5 -20.5q45 0 75.5 35.5t30.5 107.5q0 34 -8 55t-22.5 33t-34.5 16t-44 4q-48 0 -88 -34
l-128 1l71 365h343v-112z" />
    <glyph glyph-name="six" unicode="6" horiz-adv-x="531" 
d="M358 517q-8 31 -27.5 39.5t-48.5 8.5q-21 0 -39.5 -5.5t-33.5 -26t-25.5 -59t-14.5 -104.5q53 62 129 62q44 0 82 -18.5t65.5 -49t43.5 -70t16 -81.5q0 -56 -16.5 -99.5t-46.5 -72.5t-72 -44t-93 -15q-55 0 -100 18t-77 58t-49.5 102.5t-17.5 152.5q0 102 18 172t52 114
t81 63.5t106 19.5q83 0 135 -39t68 -126h-135zM180 224q0 -35 8.5 -58.5t23 -38.5t33 -21.5t39.5 -6.5q19 0 36 4.5t29 17t19 34t7 56.5q0 51 -28 83.5t-70 32.5q-21 0 -38.5 -8t-30.5 -22.5t-20.5 -33t-7.5 -39.5z" />
    <glyph glyph-name="seven" unicode="7" horiz-adv-x="476" 
d="M25 678h424l1 -113q-40 -46 -78.5 -112t-69 -141.5t-51 -156t-24.5 -155.5h-135q4 72 22 148t46.5 149.5t67 142t83.5 126.5h-286v112z" />
    <glyph glyph-name="eight" unicode="8" horiz-adv-x="531" 
d="M144 357q-54 23 -81 60.5t-27 85.5q0 41 15.5 74.5t44.5 57.5t70.5 37.5t94.5 13.5q51 0 92.5 -13.5t71 -37.5t45 -57.5t15.5 -74.5q0 -51 -29 -88t-77 -58q63 -24 95 -62.5t32 -99.5q0 -51 -17.5 -90.5t-49 -67t-75.5 -41.5t-97 -14q-54 0 -99.5 14t-78 40t-51 64.5
t-18.5 88.5q0 60 30.5 100.5t93.5 67.5zM168 493q0 -42 26.5 -63t66.5 -21q39 0 66 21t27 63q0 40 -26.5 63.5t-65.5 23.5q-40 0 -67 -23.5t-27 -63.5zM156 202q0 -29 8.5 -49t23.5 -33t34.5 -19t41.5 -6t41.5 5.5t33.5 18t22.5 32.5t8.5 50q0 52 -31.5 74t-76.5 22
q-51 0 -78.5 -26.5t-27.5 -68.5z" />
    <glyph glyph-name="nine" unicode="9" horiz-adv-x="532" 
d="M179 147q8 -31 27.5 -39.5t48.5 -8.5q21 0 39.5 5.5t33.5 26t25.5 59t14.5 104.5q-53 -62 -129 -62q-44 0 -82 18.5t-65.5 49t-43.5 70t-16 81.5q0 56 16.5 99t46.5 72.5t72 44.5t93 15q55 0 100 -18t77 -58t49.5 -102.5t17.5 -152.5q0 -102 -18 -172t-52 -114
t-81.5 -63.5t-105.5 -19.5q-83 0 -135 39t-68 126h135zM357 440q0 34 -8.5 58t-23 39t-33 21.5t-39.5 6.5q-20 0 -36.5 -4.5t-28.5 -17t-19 -34.5t-7 -56q0 -51 28 -83.5t70 -32.5q21 0 38.5 8t30.5 22.5t20.5 33t7.5 39.5z" />
    <glyph glyph-name="less" unicode="&#x3c;" horiz-adv-x="595" 
d="M38 203v99l476 214v-116l-327 -147l327 -148v-116z" />
    <glyph glyph-name="greater" unicode="&#x3e;" horiz-adv-x="595" 
d="M38 -11v116l328 148l-328 147v116l476 -214v-99z" />
    <glyph glyph-name="at" unicode="@" horiz-adv-x="936" 
d="M808 -10h97q-44 -90 -140 -145q-108 -60 -263 -60q-75 0 -140.5 12.5t-120.5 38.5q-107 50 -162 150q-53 97 -53 216q0 128 60 238t166 165q106 57 241 57q57 0 108 -11.5t97 -33.5q87 -43 136 -127q46 -82 46 -180q0 -118 -71 -210q-89 -119 -230 -119q-38 0 -57 13
t-25 39q-55 -52 -124 -52q-74 0 -126 52q-49 53 -49 140q0 109 59 195q73 108 188 108q81 0 119 -62l12 51h120l-70 -328q-2 -15 -4 -25t-2 -15q0 -11 5 -17t13 -6q22 0 57 27q46 34 76 94q14 29 20.5 58.5t6.5 61.5q0 113 -80 187q-82 76 -227 76q-125 0 -210 -51
q-86 -50 -129 -142q-21 -45 -32.5 -92.5t-11.5 -97.5q0 -95 49 -175q24 -40 58 -68t78 -47q45 -17 94.5 -26.5t106.5 -9.5q218 0 314 121zM315 178q0 -57 23 -85q24 -28 58 -28q25 0 49 13q17 7 35 28q11 14 22 34.5t19 46.5q18 54 18 100q0 52 -24 79q-24 28 -61 28
q-39 0 -72 -30q-32 -30 -50 -87q-8 -29 -12.5 -53t-4.5 -46z" />
    <glyph glyph-name="backslash" unicode="\" horiz-adv-x="527" 
d="M47 666h113l337 -666h-116z" />
    <glyph glyph-name="fourarabic" unicode="&#x664;" horiz-adv-x="550" 
d="M461 678v-422h70v-113h-70v-143h-128v143h-300v112l299 423h129zM333 256v235l-168 -235h168z" />
    <glyph glyph-name="fivearabic" unicode="&#x665;" horiz-adv-x="534" 
d="M466 566h-237l-27 -132q23 12 47 16t48 4q94 0 151.5 -53t57.5 -160q0 -54 -17 -101.5t-47.5 -82t-74 -54.5t-97.5 -20q-99 0 -156.5 50t-73.5 138h135q11 -35 37.5 -55.5t58.5 -20.5q45 0 75.5 35.5t30.5 107.5q0 34 -8 55t-22.5 33t-34.5 16t-44 4q-48 0 -88 -34
l-128 1l71 365h343v-112z" />
    <glyph glyph-name="sixarabic" unicode="&#x666;" horiz-adv-x="530" 
d="M358 517q-8 31 -27.5 39.5t-48.5 8.5q-21 0 -39.5 -5.5t-33.5 -26t-25.5 -59t-14.5 -104.5q53 62 129 62q44 0 82 -18.5t65.5 -49t43.5 -70t16 -81.5q0 -56 -16.5 -99.5t-46.5 -72.5t-72 -44t-93 -15q-55 0 -100 18t-77 58t-49.5 102.5t-17.5 152.5q0 102 18 172t52 114
t81 63.5t106 19.5q83 0 135 -39t68 -126h-135zM180 224q0 -35 8.5 -58.5t23 -38.5t33 -21.5t39.5 -6.5q19 0 36 4.5t29 17t19 34t7 56.5q0 51 -28 83.5t-70 32.5q-21 0 -38.5 -8t-30.5 -22.5t-20.5 -33t-7.5 -39.5z" />
    </font>
</defs>
</svg>
