<svg id="transparent" xmlns="http://www.w3.org/2000/svg" width="15.246" height="16.058" viewBox="0 0 96.25 101.375">
  <defs>
    <style>
      .cls-1 {
        fill: #9bc53d;
        fill-rule: evenodd;
      }
    </style>
  </defs>
  <path id="S_copy" data-name="S copy" class="cls-1" d="M497.739,316.631H558a18,18,0,0,1,18,18V400a18,18,0,0,1-18,18H497.739a18,18,0,0,1-18-18V334.631A18,18,0,0,1,497.739,316.631Zm37.932,67.331q-2.678,1.941-7.5,1.941a14.353,14.353,0,0,1-8.532-2.344q-3.285-2.343-3.284-7.1h-8.354l-0.071.215a13.349,13.349,0,0,0,5.962,11.861,24.078,24.078,0,0,0,14.279,4.347q8.46,0,13.654-3.846a12.229,12.229,0,0,0,5.194-10.359,13.1,13.1,0,0,0-4.355-10.126q-4.356-3.971-12.744-6.225-6.39-1.751-9.157-3.713A5.855,5.855,0,0,1,518,353.684a6.578,6.578,0,0,1,2.552-5.355q2.552-2.07,7.3-2.071,5.034,0,7.747,2.487a8.4,8.4,0,0,1,2.713,6.494h8.318l0.071-.215a13.837,13.837,0,0,0-5.016-11.109q-5.193-4.633-13.761-4.634-8.211,0-13.4,4.079a12.645,12.645,0,0,0-5.194,10.376,12.086,12.086,0,0,0,4.695,9.894q4.694,3.775,13.4,6.064,6.105,1.639,8.514,3.7a6.677,6.677,0,0,1,2.41,5.308A6.157,6.157,0,0,1,535.671,383.962Z" transform="translate(-479.75 -316.625)"/>
</svg>
